<?xml version="1.0" encoding="UTF-8"?>
<svg xmlns="http://www.w3.org/2000/svg" xmlns:xlink="http://www.w3.org/1999/xlink" version="1.1" viewBox="0 0 500 418">
	<defs>
		<style>
			.cls-1,
			.cls-2,
			.cls-3,
			.cls-4,
			.cls-5 {
				fill: none;
			}

			.cls-6 {
				fill: #ea8457;
			}

			.cls-7 {
				fill: #e0e0e0;
			}

			.cls-8 {
				fill: #dd2c2c;
			}

			.cls-9 {
				isolation: isolate;
			}

			.cls-9,
			.cls-10 {
				opacity: .3;
			}

			.cls-11 {
				fill: #ffcb00;
			}

			.cls-12 {
				fill: url(#linear-gradient-8);
			}

			.cls-13 {
				fill: url(#linear-gradient-7);
			}

			.cls-14 {
				fill: url(#linear-gradient-5);
			}

			.cls-15 {
				fill: url(#linear-gradient-6);
			}

			.cls-16 {
				fill: url(#linear-gradient-9);
			}

			.cls-17 {
				fill: url(#linear-gradient-4);
			}

			.cls-18 {
				fill: url(#linear-gradient-3);
			}

			.cls-19 {
				fill: url(#linear-gradient-2);
			}

			.cls-20 {
				fill: #ffbe9d;
			}

			.cls-21 {
				fill: #f4f4f4;
			}

			.cls-22 {
				fill: #1a2e35;
			}

			.cls-23 {
				fill: url(#linear-gradient);
			}

			.cls-2 {
				stroke-width: .8px;
			}

			.cls-2,
			.cls-3 {
				stroke-miterlimit: 10;
			}

			.cls-2,
			.cls-3,
			.cls-24,
			.cls-25 {
				stroke: #04af65;
			}

			.cls-3 {
				stroke-width: .5px;
			}

			.cls-26 {
				fill: #263238;
			}

			.cls-27 {
				fill: #eb996e;
			}

			.cls-28 {
				fill: #f4d01e;
			}

			.cls-4 {
				stroke: #8671ff;
				stroke-width: .8px;
			}

			.cls-4,
			.cls-5 {
				stroke-miterlimit: 10;
			}

			.cls-29,
			.cls-25 {
				fill: #fff;
			}

			.cls-30 {
				fill: #fafafa;
			}

			.cls-31 {
				fill: url(#linear-gradient-10);
			}

			.cls-32 {
				fill: url(#linear-gradient-11);
			}

			.cls-33 {
				fill: url(#linear-gradient-12);
			}

			.cls-34 {
				fill: url(#linear-gradient-13);
			}

			.cls-35 {
				fill: url(#linear-gradient-14);
			}

			.cls-24 {
				fill: #8671ff;
			}

			.cls-36 {
				fill: #04af65;
			}

			.cls-37 {
				opacity: .8;
			}

			.cls-38 {
				fill: #ffbf9d;
			}

			.cls-39 {
				fill: red;
			}

			.cls-40 {
				fill: #f2f2f2;
			}

			.cls-41 {
				fill: #f5f5f5;
			}

			.cls-42 {
				fill: #fcceb6;
			}

			.cls-43 {
				fill: #f76b6b;
			}

			.cls-44 {
				fill: #455a64;
			}

			.cls-45 {
				fill: #333;
			}

			.cls-46 {
				fill: #f9b28f;
			}

			.cls-47 {
				clip-path: url(#clippath);
			}

			.cls-48 {
				fill: #ffd1bd;
			}

			.cls-5 {
				stroke: #455a64;
			}

			.cls-49 {
				fill: #ff9a6c;
			}

			#clock-needles {
				stroke: #232323
			}

			#spin-this {
				animation: spin 40s linear infinite;
				transform-origin: center;
				transform-box: fill-box;
				stroke: #04AF65;
			}

			@keyframes spin {
				from {
					transform: rotate(0deg);
				}

				to {
					transform: rotate(360deg);
				}
			}

			#coffee-smoke {
				animation: coffee-smoke 12s infinite;
				transform-origin: center;
				transform-box: fill-box;
				fill: #23232323
			}

			@keyframes coffee-smoke {

				0%,
				100% {
					opacity: .1;
				}

				50% {
					opacity: .3;
					transform: rotate(-4deg) translateX(10px) rotateY(180deg);
				}
			}

			#pictures {
				animation: pictures 15s infinite;
			}

			@keyframes pictures {

				0%,
				30%,
				33%,
				63%,
				66%,
				98%,
				100% {
					transform: translateX(0px)
				}

				15%,
				48%,
				81% {
					transform: translateX(-250px)
				}
			}

			#psoriasis {
				animation: psoriasis 15s infinite ease-in;
			}

			@keyframes psoriasis {

				0%,
				33%,
				100% {
					visibility: hidden
				}

				3%,
				30% {
					visibility: visible
				}
			}

			#acne {
				animation: acne 15s infinite ease-in-out;
			}

			@keyframes acne {

				0%,
				33%,
				66%,
				100% {
					visibility: hidden
				}

				34%,
				64% {
					visibility: visible
				}
			}

			#pressureulcer {
				animation: pressureulcer 15s infinite ease-in-out;
			}

			@keyframes pressureulcer {

				0%,
				66%,
				100% {
					visibility: hidden
				}

				67%,
				98% {
					visibility: visible
				}
			}
		</style>
		<linearGradient id="linear-gradient" x1="523" y1="-505.1" x2="556.8" y2="-507.7"
			gradientTransform="translate(26.8 -204.1) rotate(-.5) scale(1 -1)" gradientUnits="userSpaceOnUse">
			<stop offset="0" stop-color="#6165cc" />
			<stop offset="1" stop-color="#0ca071" />
		</linearGradient>
		<linearGradient id="linear-gradient-2" x1="522.7" y1="-509.2" x2="556.5" y2="-511.8"
			gradientTransform="translate(26.8 -204.1) rotate(-.5) scale(1 -1)" gradientUnits="userSpaceOnUse">
			<stop offset="0" stop-color="#6165cc" />
			<stop offset="1" stop-color="#0ca071" />
		</linearGradient>
		<linearGradient id="linear-gradient-3" x1="538.5" y1="-507.1" x2="580.6" y2="-503.2"
			gradientTransform="translate(26.8 -204.1) rotate(-.5) scale(1 -1)" gradientUnits="userSpaceOnUse">
			<stop offset="0" stop-color="#6165cc" />
			<stop offset="1" stop-color="#0ca071" />
		</linearGradient>
		<linearGradient id="linear-gradient-4" x1="538.9" y1="-507.6" x2="581.1" y2="-503.7"
			gradientTransform="translate(26.8 -204.1) rotate(-.5) scale(1 -1)" gradientUnits="userSpaceOnUse">
			<stop offset="0" stop-color="#6165cc" />
			<stop offset="1" stop-color="#0ca071" />
		</linearGradient>
		<linearGradient id="linear-gradient-5" x1="539.1" y1="-508.1" x2="581.3" y2="-504.2"
			gradientTransform="translate(26.8 -204.1) rotate(-.5) scale(1 -1)" gradientUnits="userSpaceOnUse">
			<stop offset="0" stop-color="#6165cc" />
			<stop offset="1" stop-color="#0ca071" />
		</linearGradient>
		<linearGradient id="linear-gradient-6" x1="539.6" y1="-508.5" x2="581.8" y2="-504.6"
			gradientTransform="translate(26.8 -204.1) rotate(-.5) scale(1 -1)" gradientUnits="userSpaceOnUse">
			<stop offset="0" stop-color="#6165cc" />
			<stop offset="1" stop-color="#0ca071" />
		</linearGradient>
		<linearGradient id="linear-gradient-7" x1="539.6" y1="-508.8" x2="581.8" y2="-504.9"
			gradientTransform="translate(26.8 -204.1) rotate(-.5) scale(1 -1)" gradientUnits="userSpaceOnUse">
			<stop offset="0" stop-color="#6165cc" />
			<stop offset="1" stop-color="#0ca071" />
		</linearGradient>
		<linearGradient id="linear-gradient-8" x1="539.9" y1="-511.3" x2="582.1" y2="-507.3"
			gradientTransform="translate(26.8 -204.1) rotate(-.5) scale(1 -1)" gradientUnits="userSpaceOnUse">
			<stop offset="0" stop-color="#6165cc" />
			<stop offset="1" stop-color="#0ca071" />
		</linearGradient>
		<linearGradient id="linear-gradient-9" x1="539.5" y1="-509.7" x2="581.7" y2="-505.7"
			gradientTransform="translate(26.8 -204.1) rotate(-.5) scale(1 -1)" gradientUnits="userSpaceOnUse">
			<stop offset="0" stop-color="#6165cc" />
			<stop offset="1" stop-color="#0ca071" />
		</linearGradient>
		<linearGradient id="linear-gradient-10" x1="539.7" y1="-510.2" x2="581.9" y2="-506.3"
			gradientTransform="translate(26.8 -204.1) rotate(-.5) scale(1 -1)" gradientUnits="userSpaceOnUse">
			<stop offset="0" stop-color="#6165cc" />
			<stop offset="1" stop-color="#0ca071" />
		</linearGradient>
		<linearGradient id="linear-gradient-11" x1="539.7" y1="-510.8" x2="581.9" y2="-506.8"
			gradientTransform="translate(26.8 -204.1) rotate(-.5) scale(1 -1)" gradientUnits="userSpaceOnUse">
			<stop offset="0" stop-color="#6165cc" />
			<stop offset="1" stop-color="#0ca071" />
		</linearGradient>
		<linearGradient id="linear-gradient-12" x1="539.7" y1="-511.2" x2="581.9" y2="-507.3"
			gradientTransform="translate(26.8 -204.1) rotate(-.5) scale(1 -1)" gradientUnits="userSpaceOnUse">
			<stop offset="0" stop-color="#6165cc" />
			<stop offset="1" stop-color="#0ca071" />
		</linearGradient>
		<linearGradient id="linear-gradient-13" x1="539.7" y1="-511.4" x2="581.9" y2="-507.5"
			gradientTransform="translate(26.8 -204.1) rotate(-.5) scale(1 -1)" gradientUnits="userSpaceOnUse">
			<stop offset="0" stop-color="#6165cc" />
			<stop offset="1" stop-color="#0ca071" />
		</linearGradient>
		<linearGradient id="linear-gradient-14" x1="539.8" y1="-512" x2="582" y2="-508.1"
			gradientTransform="translate(26.8 -204.1) rotate(-.5) scale(1 -1)" gradientUnits="userSpaceOnUse">
			<stop offset="0" stop-color="#6165cc" />
			<stop offset="1" stop-color="#0ca071" />
		</linearGradient>
		<clipPath id="clippath">
			<polygon class="cls-1" points="521.5 145.5 662.2 145.2 662.2 289.4 521.5 289.4 521.5 145.5" />
		</clipPath>
	</defs>
	<!-- Generator: Adobe Illustrator 28.7.1, SVG Export Plug-In . SVG Version: 1.2.0 Build 142)  -->
	<g>
		<g id="Layer_1">
			<g id="clock">
				<circle class="cls-24" cx="264.6" cy="56.7" r="56.7" />
				<path class="cls-26"
					d="M315.9,53.9v4.2c0,.7-.1,1.4-.2,2.2-.1.8-.2,1.6-.2,2.5-.1.9-.3,1.9-.5,2.9-.9,4.9-2.4,9.7-4.7,14.1-3,5.9-7,11.2-12,15.6l-2.1,1.8c-.8.6-1.5,1.1-2.3,1.7-.8.6-1.6,1.2-2.4,1.7l-2.6,1.5-1.3.7-1.4.6-2.8,1.2c-1,.4-2,.7-3,1-1,.4-2,.7-3.1.9-2.1.5-4.3.9-6.5,1.2-1.2.1-2.3.4-3.4.4h-5.1l-1.7-.2c-1.2-.1-2.3-.2-3.5-.3-2.4-.4-4.7-.9-7-1.6l-1.7-.5c-.3-.1-.6-.2-.9-.3l-.9-.3-3.4-1.4c-1.2-.5-2.3-1.1-3.4-1.7-.6-.3-1.2-.6-1.7-.9l-1.6-1c-2.2-1.4-4.2-2.9-6.2-4.6l-2.8-2.7-.7-.7-.8-.5-1.3-1.5-1.3-1.5-1.1-1.7-1.2-1.7-.6-.8c-.2-.3-.3-.6-.5-.9l-2-3.5c-.6-1.2-1.1-2.5-1.7-3.7-2.1-5.2-3.4-10.7-3.8-16.3-.3-5.6.2-11.1,1.6-16.5.4-1.3.6-2.7,1.1-3.9.5-1.3,1-2.5,1.5-3.8l.4-.9.5-.9.9-1.7.9-1.7,1.1-1.7,1.1-1.7.5-.8.6-.8c.8-1,1.6-2.1,2.4-3.1,1.7-1.9,3.6-3.7,5.5-5.4l1.5-1.2c.5-.4,1-.8,1.5-1.1,1-.7,2.1-1.5,3.1-2.1l3.3-1.8.8-.5.8-.4,1.7-.7c2.2-1,4.5-1.8,6.8-2.5,1.1-.3,2.3-.5,3.4-.8l1.7-.4c.6,0,1.1-.2,1.7-.2l3.4-.4h3.4c2.2,0,4.4,0,6.6.3,1.1,0,2.1.3,3.2.5,1,.2,2.1.4,3.1.6l3,.9,1.5.4,1.4.6,2.8,1.1c.9.4,1.8.8,2.6,1.3.8.5,1.7.9,2.5,1.4l2.3,1.5c5.5,3.7,10.3,8.4,14,13.8,2.9,4.1,5.2,8.7,6.7,13.5.3,1,.7,1.9.8,2.8.2.9.4,1.7.5,2.5.2.8.4,1.5.4,2.1.1.7.2,1.3.2,1.8.1,1.1.3,1.9.3,2.4v.8s0-.3-.1-.8-.2-1.4-.3-2.4c-.1-.5-.1-1-.2-1.7s-.3-1.4-.5-2.1c-.2-.8-.4-1.6-.6-2.5s-.5-1.9-.8-2.8c-1.5-4.7-3.7-9.2-6.6-13.3-3.7-5.4-8.5-10.1-14-13.7l-2.3-1.5c-.8-.5-1.6-.9-2.5-1.3-.9-.4-1.7-.9-2.6-1.3l-2.7-1.1-1.4-.5-1.5-.4-2.9-.9c-1-.3-2.1-.4-3.1-.6-1-.2-2.1-.4-3.1-.5-2.2-.3-4.3-.4-6.5-.3h-3.4l-3.4.4c-.6,0-1.1,0-1.7.2l-1.7.4c-1.1.3-2.3.5-3.4.8-2.3.7-4.5,1.5-6.7,2.4l-1.7.7-.8.4-.8.5-3.2,1.8c-1,.7-2,1.4-3.1,2.1-.5.4-1,.7-1.5,1.1l-1.4,1.2c-1.9,1.6-3.8,3.4-5.5,5.3l-2.4,3-.6.8-.5.8-1.1,1.7-1.1,1.7-.9,1.7-.9,1.7-.5.9-.4.9c-.5,1.2-1,2.5-1.5,3.7l-1.2,3.7c-1.3,5.3-1.9,10.8-1.6,16.3.4,5.5,1.7,10.9,3.7,16l1.7,3.7,2,3.4.5.9.6.8,1.1,1.7,1.1,1.7,1.3,1.5,1.3,1.5.7.7.7.7,2.8,2.7c1.9,1.7,4,3.2,6.1,4.6l1.6,1c.6.4,1.2.6,1.7.9,1.1.6,2.2,1.2,3.3,1.7l3.4,1.4.9.3.9.3,1.7.5c2.3.7,4.6,1.2,7,1.6,1.1.2,2.3.2,3.4.3l1.7.2h5.1c1.1-.1,2.2-.2,3.3-.3,2.2-.2,4.3-.6,6.4-1.2,1-.2,2.1-.6,3.1-.9,1-.3,2-.6,3-1l2.8-1.2,1.4-.6,1.3-.7,2.6-1.5c.9-.5,1.6-1.1,2.4-1.6s1.6-1.1,2.3-1.6c.7-.6,1.4-1.2,2.1-1.8,5-4.3,9.1-9.5,12.1-15.4,2.3-4.4,3.9-9.1,4.8-14,.2-1,.4-2,.5-2.9.1-.8.2-1.7.2-2.5.1-.8.2-1.5.2-2.2v-5s.2,0,.2.6Z" />
				<g id="spin-this">
					<circle class="cls-25" cx="264" cy="56.1" r="51.3" />
					<path id="clock-needles" class="cls-24"
						d="M242.4,57.5h5c4.2-.2,10.2-.2,16.9-.2l-.3.3v-3.4c0-7.5.1-14.3.1-19.1.1-2.4.1-4.3.1-5.8s.1-1.5.2-2.2c.1.7.1,1.4.1,2.1,0,1.5.1,3.4.1,5.8v22.8h-.3c-6.7,0-12.6,0-16.9,0h-5c-.6,0-1.2,0-1.8-.2.6,0,1.2,0,1.8,0Z" />
				</g>
				<path class="cls-26"
					d="M264.5,17.2c.1,1.5,0,2.9-.3,4.3-.3-1.4-.5-2.9-.3-4.3-.1-1.5,0-2.9.3-4.3.3,1.3.4,2.8.3,4.3Z" />
				<path class="cls-26"
					d="M243.9,22.6c1.1.9,2,2,2.8,3.3-1.2-.7-2.3-1.7-3.3-2.8-1.1-.9-2-2-2.8-3.3,1.3.7,2.4,1.7,3.3,2.8Z" />
				<path class="cls-26"
					d="M230.8,36.6c1.3.7,2.5,1.6,3.4,2.6-1.3-.5-2.6-1.2-3.7-2.1-1.3-.6-2.5-1.4-3.5-2.4,1.3.4,2.6,1.1,3.8,1.9Z" />
				<path class="cls-26" d="M230.7,57.1c-3.9.4-7.9.4-11.8,0,3.9-.5,7.9-.5,11.8,0Z" />
				<path class="cls-26" d="M312,56.3c-3.7.4-7.4.4-11.2,0,3.7-.5,7.5-.5,11.2,0Z" />
				<path class="cls-26"
					d="M299.6,76.2c1.6,1.1,3,2.4,4.2,3.8-1.7-.9-3.2-2-4.6-3.3-1.6-1.1-3-2.4-4.2-3.8,1.6.9,3.2,2,4.6,3.3Z" />
				<path class="cls-26"
					d="M284.2,90.4c1.1,1.6,1.9,3.3,2.5,5.1-1.1-1.5-2.2-3.2-3-4.9-1.1-1.6-2-3.3-2.9-5,1.3,1.5,2.5,3.1,3.4,4.8Z" />
				<path class="cls-26" d="M263.8,96.3c-.1-2,0-4,.3-5.9.3,2,.4,3.9.3,5.9.1,2,0,4-.3,5.9-.3-1.9-.4-3.9-.3-5.9Z" />
				<path class="cls-26" d="M243.1,90.4c1.4-1.4,2.9-2.7,4.4-3.9-2.3,3.2-5.3,5.9-8.8,7.7,1.4-1.3,2.9-2.6,4.4-3.8Z" />
				<path class="cls-26"
					d="M230.2,77.6c1.2-1.3,2.5-2.5,3.9-3.4-1,1.4-2.1,2.8-3.4,3.9-1.2,1.3-2.5,2.5-3.9,3.4.9-1.5,2.1-2.8,3.4-3.9Z" />
				<path class="cls-26"
					d="M298.5,37c1-1.1,2.1-2.1,3.4-3-.8,1.3-1.8,2.4-3,3.4-1,1.2-2.1,2.2-3.4,3,.9-1.3,1.9-2.4,3-3.4Z" />
				<path class="cls-26"
					d="M283.7,21.4c1-1.1,2.1-2.1,3.4-2.9-.8,1.3-1.8,2.4-2.9,3.4-1,1.1-2.1,2.1-3.4,2.9.8-1.2,1.8-2.4,2.9-3.4Z" />
			</g>
			<g id="doctor">
				<g id="legit_health--1-2">
					<path class="cls-44"
						d="M99.4,233.3c-3.4-15.9-23.7-57.8-29-65.9H31.4c-4.7,0-8.9,3.1-10.2,7.6-2.1,7.2-4.3,16-3.4,20,.5,2.2,8.8,26.8,13.5,41.2,2.3,6.9,3.8,14,4.7,21.2l5.2,42.5,74.3-1.6s-13.6-53-16.1-65Z" />
					<path class="cls-26"
						d="M103.2,233.4c-3.4-16-9.6-37-11.9-46.4-2.1-8.7-6.1-12.8-12.8-17.4-2-1.4-4.4-2.1-6.8-2.1h-37.5c-3.7,0-7.1,2.2-8.5,5.7-3,7.3-5.1,17.6-4.1,21.9.5,2.2,8.8,26.8,13.5,41.2,2.3,6.9,3.8,14,4.7,21.2l5.2,42.5,74.3-1.6s-13.5-53.1-16.1-65Z" />
					<path class="cls-1" d="M107.6,308.4s-15.8-62.9-18.3-74.8c-3.4-16-6.5-38.3-11.9-46.4" />
					<rect class="cls-7" x="121.5" y="324.3" width="7.2" height="78.9" />
					<rect class="cls-7" x="118.3" y="340.5" width="13.4" height="56.8" />
					<path class="cls-7" d="M49.2,311.6s43.4,13.9,74.8,13.9,67.6-13.9,67.6-13.9H47.2" />
					<path class="cls-26"
						d="M40.5,292.4v10.9c0,5.1,4.1,9.2,9.2,9.2h135.8c5.1,0,9.2-4.1,9.2-9.2h0c0-5.1-4.1-9.1-9.1-9.2l-145.1-1.7" />
					<path class="cls-26"
						d="M56.5,398.8s28.5-27.1,69.1-26.5,68.1,26.5,68.1,26.5l-4,4.5s-32.3-18.5-66.5-17-63.3,17-63.3,17l-3.4-4.5Z" />
					<path class="cls-44" d="M65,402.5c6.9,9-3.4,19.3-12.4,12.4-6.9-9,3.3-19.3,12.4-12.4Z" />
					<path class="cls-44"
						d="M133.4,408.2c0,4.7-3.9,8.4-8.5,8.4s-8.4-3.8-8.4-8.5,3.7-8.4,8.4-8.4,8.5,3.8,8.5,8.5h0Z" />
					<path class="cls-44"
						d="M204.3,408.2c0,4.7-3.9,8.5-8.5,8.5s-8.4-3.9-8.4-8.5,3.8-8.4,8.5-8.4,8.4,3.7,8.4,8.4h0Z" />
					<path class="cls-26"
						d="M89,250l.9,4h85.5c1.7,0,3.1-1.2,3.4-2.9h0c.2-1.5-.6-3.1-2-3.7-5.4-2.5-20.4-7.9-47.1-7.6-37.8.4-40.8,6.4-40.8,6.4v3.8Z" />
					<path class="cls-26" d="M150,250.7c-.2,1.3-14.3,49.3-14.3,49.3h-14.7l14.1-49.3h14.9Z" />
					<path class="cls-44" d="M176.9,253.9c0,.1-19.2.2-43,.2s-43-.1-43-.2,19.2-.2,43-.2,43,.1,43,.2Z" />
					<path class="cls-26"
						d="M189,312.5c-.1.1-.2.1-.3.1l-1.1.4-3.8,1.3c-3.3,1.2-8.1,2.8-14.2,4.5-3,.8-6.4,1.7-10,2.5s-3.7.9-5.6,1.2l-6,1.1c-8.9,1.4-18,2.1-27,1.9-2.4-.1-4.8-.1-7.1-.3l-3.5-.3h-1.7c0-.1-1.7-.3-1.7-.3l-6.6-.8-6.3-1c-2.1-.3-4-.7-6-1.1l-5.6-1.2c-3.6-.9-7-1.6-10-2.4l-8.2-2.2c-2.4-.7-4.5-1.3-6.2-1.8l-3.9-1.2-1-.3c0,0-.2,0-.3-.1h.3c0,.1,1,.4,1,.4l3.9,1.1,6.2,1.7,8.2,2.1c3.1.8,6.4,1.5,10,2.4l5.6,1.1c1.9.4,3.9.8,6,1.1l6.3,1,6.6.8,1.7.2h1.7c0,.1,3.5.4,3.5.4,2.3.2,4.7.3,7.1.3,9,.1,18-.5,26.9-1.9l6-1.1c1.9-.3,3.8-.8,5.6-1.2,3.6-.8,6.9-1.7,10-2.5,6.1-1.7,11-3.2,14.3-4.3l3.9-1.2,1-.3c.1,0,.2-.1.3-.1Z" />
					<path class="cls-26"
						d="M131.7,340.4c-2.2.2-4.5.3-6.7.2-2.2.1-4.5.1-6.7-.2,2.2-.2,4.5-.3,6.7-.2,2.2,0,4.5,0,6.7.2Z" />
					<path class="cls-44"
						d="M105.2,292.3c0,.2-14.5.3-32.3.3s-32.3-.2-32.3-.3,14.5-.2,32.4-.2c17.9,0,32.3.1,32.2.2Z" />
					<g>
						<g id="doctor-2" data-name="doctor">
							<g id="doctor-body">
								<path class="cls-29" d="M116.8,116.4" />
							</g>
							<g id="doctor-head-nodding">
								<path class="cls-22"
									d="M81.2,124.2c1.1-9.2,2.2-18.3,3.2-27.4.2-1.5.4-3,0-4.5s-1.2-2.9-2.6-3.5c-2.3-1-4.5-10.3-7-3.4-2.1,5.7-4.9,17.3-3.8,23.3s4.9,12.5,10.1,15.5" />
								<path class="cls-22"
									d="M93.5,74.7c4,16.8,10.5,33,19.2,48,.5.9,1,1.7,1.9,2.1,1.2.5,2.5-.2,3.7-.8,3.3-1.8,5.5-4.4,7.6-7.4,2.2-3.1,2.9-9.8,2.7-13.6-.1-2.6-.4-5.2-.8-7.8-.7-4.4-.8-9-1.8-13.4s-2.8-8.8-6.1-11.9c-3.3-3-10.4-6.5-19.9-2.4" />
								<path class="cls-42"
									d="M84.4,81.1l-2.5,56.1,18.1,20.5c.4-1.3,4.8-5.1,5.8-8.7,2.4-8.9,2.1-20.8,2.1-20.8,0,0,8.7.7,12.4-11.5,1.8-6,2.9-16.2,3.5-24.6.5-7.6-5.1-18.3-14.4-19.1l-4.1-.8-16.3,5c-2.3,0-4.3,1.6-4.6,3.9Z" />
								<path class="cls-26"
									d="M111.3,109.3h.8c.3-.1.6-.3.8-.6.3-.7,0-1.3,0-1.8-.3-1.1-.5-2.3-.8-3.5-1.2-5-2.3-9-2.5-9s.5,4.1,1.7,9.1c.3,1.2.6,2.4.9,3.5.2.4.2.9,0,1.3,0,.3-.6.3-1,.3-1.8,0-2.9,0-2.9.1s1.1.2,2.9.6Z" />
								<path class="cls-46" d="M107.6,132.2c-12.7-.5-16.8-9.7-16.8-9.7,4.6,3.7,11.2,5,17.1,5.7l-.3,4Z" />
								<path class="cls-26"
									d="M104.4,71.4c-6.9,8-14.4,17.1-21.6,24.9-.8-4.2-1.4-10.6-.2-14.8,1.2-4.2,3.6-8.1,7.3-10.4,3.7-2.3,9.8-2.3,13.7-.4l.8.7Z" />
								<path class="cls-22" d="M103.9,71.4l3.4.9s15.9,14.2,17.1,26.6h0s4.8-33.1-17.4-31.8l-3.1,4.3Z" />
								<path class="cls-20"
									d="M82.3,111.7c0,.2-8.8.8-7.6-7.7.9-6.2,5.3-5.8,7.7-5.1.9.2,1.7,2.6,1.6,3.5-.4,3.2-1.7,9.1-1.7,9.3Z" />
								<path class="cls-27"
									d="M81.1,108.6c-.4.2-1,.2-1.4,0-1.1-.6-1.8-2.3-1.6-4,0-.8.3-1.6.8-2.3.3-.6,1-1.1,1.7-1.1s.6.1.8.3c.2.2.3.4.3.6,0,.4-.2.5-.2.5,0,0,0-.1,0-.4,0-.3-.4-.5-.8-.5-.6.1-1.1.5-1.3,1-.4.7-.6,1.4-.7,2.1-.2,1.5.3,3,1.2,3.5.3.2.7.2,1.1.1.2-.1.4-.2.4-.2,0,0,0,.2-.3.4Z" />
								<path class="cls-22"
									d="M81,123s6.7-4.4,9.1-15.7c.7-3.3,2.3-13,4.3-15.7,5.5-7.4,8.7-14.3,13.2-22.3l-.6-.7c-2-2.7-5.5-3.9-8.9-3.8s-6.6,1.4-9.5,3.1c-5.4,3.1-10.2,7.5-12.9,13.2-2.7,5.7-8.3,40.7,5.3,41.9Z" />
								<path class="cls-29"
									d="M72.2,112.6v-2.1c.2-2,.6-4.1,1.3-6,1-2.9,2.5-5.6,4.3-8.1,2.3-3,4.8-5.8,7.6-8.3,3-2.7,5.9-5.1,8.5-7.4,2.3-2,4.5-4.1,6.6-6.3,1.4-1.4,2.7-3,3.9-4.7.5-.6.8-1.1,1-1.4,0-.2,0-.3.2-.4h0c0,0,0,0,0,0l-.2.4c-.2.3-.5.8-.9,1.4-1.2,1.7-2.5,3.3-3.9,4.8-2.1,2.2-4.3,4.3-6.6,6.3-2.6,2.3-5.5,4.7-8.4,7.4-2.8,2.5-5.4,5.3-7.6,8.3-1.8,2.4-3.2,5.1-4.3,8-.7,1.9-1.2,4-1.4,6v1c0,.3,0,.5,0,.7v.4h0c0,.1,0,0,0,0Z" />
								<path class="cls-29"
									d="M75.3,84.8c0-.1,0-.3.2-.4,0-.2.2-.3.3-.5.3-.4.7-.8,1.1-1.2.5-.5,1.1-.9,1.8-1.2,1.4-.7,3.2-1.3,5.2-2.1s4.1-1.7,6.3-2.8c3.7-1.9,7.4-4,10.8-6.4,1.3-.9,2.4-1.6,3.1-2.2l.8-.6c0,0,.2,0,.3-.2,0,0-.2,0-.3.2l-.8.7c-.7.6-1.7,1.4-3,2.3-3.4,2.5-7,4.6-10.8,6.5-2.2,1.1-4.4,2-6.3,2.8s-3.8,1.4-5.2,2.1c-.6.3-1.2.6-1.8,1.1-.4.4-.8.8-1.1,1.2l-.6,1.2c0-.1,0-.2,0-.5Z" />
								<path class="cls-29"
									d="M117.2,124l.5-.3c.4-.3,1-.6,1.7-1.1,2-1.4,3.7-3.2,5.1-5.2,2-3,3.3-6.4,3.8-10,.5-4.4-.1-8.8-1.8-12.9-.9-2.1-2-4.1-3.3-6-1.3-1.7-2.6-3.4-4.1-4.9-1.4-1.4-2.7-2.8-4-4.1s-2.5-2.5-3.5-3.7c-1.6-1.9-3-3.9-4.2-6-.2-.4-.4-.7-.5-1s-.2-.6-.3-.8l-.2-.5q0,0,0-.2c0,0,0,0,0,.2l.2.5c0,.2.2.5.3.8s.3.6.5,1c1.2,2.1,2.7,4.1,4.3,5.9,1.1,1.1,2.2,2.3,3.5,3.6s2.7,2.6,4.1,4.1c1.5,1.5,2.8,3.2,4.1,4.9,1.3,1.8,2.4,3.9,3.3,6,1.7,4.2,2.3,8.7,1.8,13.1-.5,3.7-1.8,7.1-3.9,10.1-.8,1.2-1.7,2.2-2.7,3.2s-1.5,1.4-2.4,2c-.5.3-1.1.7-1.7,1l-.6.3h0c0-.1,0-.1,0,0Z" />
								<g>
									<path class="cls-22"
										d="M83.2,121.6l-6.7-7.7c-.9-1-2.2-2.2-3.5-1.8-.6.2-1.1.6-1.5,1.2-1.4,1.8-1.3,6.9-1.5,9.2-.6,6.9,6.3,13.3,13.1,13.9" />
									<path class="cls-29"
										d="M74.3,130.6c0-.2-.2-.3-.3-.5-.2-.2-.3-.5-.4-.7-.3-.6-.5-1.2-.7-1.9-.6-2.4-.2-4.8.9-6.9.2-.4.4-.8.7-1.2,0-.2.2-.3.3-.4,0,0-.4.6-.9,1.6-.7,1.3-1,2.8-1.1,4.3,0,.8,0,1.6.2,2.4.2.7.4,1.3.7,1.9.5,1,.9,1.6.9,1.6,0-.1-.3-.2-.3-.2Z" />
									<path class="cls-29"
										d="M71.5,111c.2.4.4.9.6,1.5.7,1.6,1.5,3.3,2.5,4.8.5.9,1.1,1.7,1.8,2.4.6.6,1.2,1.2,1.8,1.7,1.1.9,1.8,1.4,1.8,1.4-.2-.1-.3-.2-.5-.3-.4-.3-.9-.6-1.3-1-.6-.5-1.2-1.1-1.8-1.7-.7-.8-1.3-1.6-1.9-2.4-1-1.5-1.8-3.2-2.4-4.9-.2-.7-.4-1.2-.5-1.6,0-.2,0-.4,0-.6,0,.2,0,.4,0,.7Z" />
								</g>
								<path class="cls-26"
									d="M119.2,101c0-.9-.7-1.6-1.5-1.6-.9-.1-1.7.5-1.8,1.4h0c0,.8.7,1.6,1.5,1.6.9.1,1.7-.5,1.8-1.4h0Z" />
								<path class="cls-26"
									d="M120.2,95.3c-.7-.6-1.5-1-2.4-1.1-.9-.2-1.8,0-2.6.4-.6.3-.9.7-.8.8.2.3,1.6-.4,3.3-.2s2.8,1.3,3,1.1c.1,0,0-.5-.5-1Z" />
								<path class="cls-46"
									d="M107.8,113.5c-.2.2-.4.4-.6.5-.7.6-1.5.9-2.4,1.1s-1.8-.3-2.3-1.1c-.4-.7-.2-1.7.3-2.3s1.3-.9,2.1-.8c1.2.1,2.2.7,2.7,1.7.2.3.3.7.2.9Z" />
								<path class="cls-26"
									d="M103.4,110.6c0,1.1.4,2.1,1.1,2.9.8.9,1.8,1.4,2.9,1.5.8.1,1.3-.1,1.3-.2,0-.3-2-.4-3.4-1.9-1.5-1.5-1.2-3.4-1.5-3.4s-.4.4-.4,1.1Z" />
								<path class="cls-22"
									d="M120.5,90.5c-1.3-1.2-3.1-1.5-4.7-.8-.6.3-.8.7-.7.9.2.4,1.5.3,2.9.5s2.5.7,2.9.4c0-.2,0-.6-.4-1Z" />
								<path class="cls-26"
									d="M100.6,99.3c.2-.9,1-1.5,1.8-1.2.9.1,1.5.9,1.4,1.8h0c-.2.8-1,1.4-1.8,1.2-.9,0-1.5-.9-1.4-1.8h0Z" />
								<path class="cls-26"
									d="M98.3,93.5c.8-.5,1.7-.7,2.6-.6s1.8.4,2.5,1c.6.4.7.8.6.9-.2.2-1.4-.8-3.1-1s-3,.6-3.2.4c-.1,0,0-.5.6-.7Z" />
								<path class="cls-22"
									d="M99.5,87.8c1.5-.9,3.3-.8,4.7.3.5.4.6.8.5,1-.3.4-1.5,0-2.9-.1s-2.6.2-2.9-.2c0-.2.1-.6.6-1Z" />
							</g>
						</g>
						<g id="legit_health--1-2-2" data-name="legit_health--1-2">
							<g>
								<path class="cls-44" d="M177.4,367.5l-3.8,25.9s25,12,24.6,16.9l-50.3-5.1,4.4-40.5,25.1,2.8Z" />
								<path class="cls-26" d="M148,405.2l.4-3.2,48.7,5.9c.9.7,1.4,1.6,1.5,2.7l-50.6-5.4Z" />
								<path class="cls-26" d="M174.1,393.7c0,.3-1.3.3-2.6.9s-2.1,1.6-2.3,1.5.3-1.5,1.9-2.3,3.1-.3,3-.1Z" />
								<path class="cls-26" d="M179.1,396.5c0,.2-1,.5-2,1.5s-1.4,2-1.6,2-.2-1.4,1-2.6,2.7-1.1,2.6-.9Z" />
								<path class="cls-26"
									d="M181.6,403.2c-.3,0-.5-1.2.3-2.5s2-1.7,2.1-1.5c0,.2-.8.8-1.4,1.9-.7,1.1-.9,2.1-1,2.1Z" />
								<path class="cls-26"
									d="M174.3,387.7c-.1.2-1.2-.2-2.6-.3-1.4-.1-2.6.2-2.7,0-.1-.2,1-1,2.7-.9s2.8,1,2.6,1.2Z" />
								<g id="restless-foot">
									<path class="cls-44" d="M235.3,316.3l11.7,18.1s27.1-5.6,29.8-1.6l-43.1,26.5-16-34.2,17.6-8.8Z" />
									<path class="cls-26" d="M233.7,359.3l-1.7-2.8,42.3-24.9c1.1.1,2.1.5,2.8,1.3l-43.4,26.4Z" />
									<path class="cls-26"
										d="M247.4,334.3c.1.2-.9,1-1.5,2.3-.6,1.4-.7,2.5-.9,2.6-.3,0-.7-1.4.1-3s2.2-2.1,2.3-1.9Z" />
									<path class="cls-26"
										d="M243.9,329.4c0,.3-1.1.6-2.3,1.4s-1.9,1.7-2.1,1.6c-.2-.2.2-1.5,1.6-2.4s2.8-.8,2.8-.6Z" />
								</g>
								<path class="cls-26"
									d="M111.4,221.2c1,.1-4.4,24.4,29.9,31.1,34.4,6.6,47.2,12.5,53.3,21.1s-17.9,110.8-17.9,110.8l-28-3.9s6.3-54.7,7.3-61.3,6.6-23.7,6.6-23.7h0l-73.4-3.6c-.4,0-.9-.1-1.3-.1-16.3-1.5-27.8-23.3-25.5-39.5l3.1-23.8,45.9-7.1Z" />
								<path id="restless-leg" class="cls-26"
									d="M111.5,239s34.5-7.6,52.8-8.1,28.6,3.1,31.5,6.6c6.7,8.2,49.5,87.8,49.5,87.8l-26.3,15.8s-38.1-61.2-48.7-77.4l-3.7-5-56.1-11.2,1-8.5Z" />
								<path class="cls-44"
									d="M115.5,245.3s0,0,.3.1l.8.3,2.8.8,10.4,2.8,34.2,9,2.7.7-.2-.2c3.8,10.5,9.5,20.3,16.7,28.9,2.2,2.5,4.5,4.9,7,7.2l2.1,1.8.5.5h.2c0,.1,0,0-.2-.1l-.5-.5-2-1.8c-2.5-2.3-4.7-4.7-6.9-7.3-3.2-3.8-6.1-7.9-8.6-12.2-3.2-5.3-5.8-10.9-7.9-16.7h0c0-.1-.1-.1-.1-.1l-2.8-.7-34.3-8.9-10.4-2.6-2.8-.7-.7-.2h-.3Z" />
								<path class="cls-21"
									d="M140.2,232.8h-13.1l-65-33.8-.8,9.9c-.6,7.8-1.8,15.6-3.6,23.2-2.3,9.9-5.3,24.5-5.3,32.5-.4,17.9,10.5,30.7,28,29.8l62.5,2.5-2.7-64.1Z" />
								<path class="cls-21"
									d="M80.4,129.2l-4.5,4.8s-19.2,11.1-24.5,15.6c-5,5.1-.3,42.4,2,60.3.7,5.7,9.3,3,8.7,8.8l-7.1,29.1,10.4-12.3,43.1-9.2,10.1-18.3v-25.4c0,0-3.7-1.4-3.7-1.4l5.5-29.8-9.3-3.2-8.9,9-19.8-24.5-2-3.5Z" />
								<polygon class="cls-29" points="107.7 141.2 101.6 153.3 82.5 132.7 106.2 188.1 107.7 141.2" />
								<path class="cls-26"
									d="M101.1,226.1v-.2c0,0,0-.6,0-.6,0-.7.3-1.8.5-3.1.2-1.4.5-3,.8-4.9.2-.9.3-1.9.5-3l.3-1.7c0-.6.2-1.2.3-1.8.4-2.5.8-5.1,1.2-7.9l.6-4.4c.2-1.6.5-3.1.6-4.7,0-.8,0-1.6,0-2.4,0-.9-.4-1.6-.9-2.3s-1-1.3-1.5-2-1-1.4-1.5-2.1c-2.1-2.8-4.1-5.9-6-9-3.2-5.3-6.1-10.4-9.1-15h0c1.3-2,2.4-3.9,3.5-5.7v.2c-2-.3-4.1-.1-6.1.5h0c-2.8-6.5-5.1-11.9-6.5-15.7-.8-1.9-1.3-3.4-1.6-4.4-.4-1-.5-1.6-.5-1.6,0,0,0,.1,0,.4,0,.2.2.6.4,1.2.3,1,.9,2.5,1.6,4.4,1.5,3.8,3.7,9.2,6.6,15.6h0c2-.7,4.1-.9,6.2-.7h.2,0c-1,2-2.2,3.9-3.5,5.8h0c3,4.5,5.8,9.6,9.1,14.8,1.9,3.1,3.8,6.2,5.9,9,.5.7,1,1.4,1.5,2.1.5.7,1,1.4,1.5,2.1s.8,1.5.9,2.3,0,1.6,0,2.4c0,1.7-.4,3.2-.6,4.7l-.7,4.4c-.4,2.8-.8,5.3-1.2,7.8,0,.7-.2,1.2-.3,1.8,0,.6-.2,1.2-.3,1.7-.2,1-.3,2.1-.5,3l-.8,4.9c-.2,1.4-.4,2.4-.5,3.1,0,.4,0,.6,0,.8s0,.1,0,.2Z" />
								<path class="cls-26"
									d="M111.1,148.3c0,0,0,0,0,0l.2.5c0,.2.2.6.4,1.1.3,1.1.8,2.5,1.5,4.3h0c0,.1-3,1-3,1v-.2l3,2.7h0c0,.1-1.7,9.4-1.7,9.4l-3,15.8-1,4.8-.3,1.3v.3h0c0,.1,0,0,0,0v-.3c0-.4.2-.8.3-1.4.2-1.2.5-2.8.9-4.8.8-4.1,1.9-9.7,3-15.9.7-3.3,1.3-6.5,1.8-9.3h0c0,.1-3-2.6-3-2.6h0c0-.1.2-.1.2-.1l3-.9h0c-.7-1.7-1.2-3.2-1.5-4.2,0-.5-.3-.9-.4-1.2v-.3h0Z" />
								<g class="cls-10">
									<path
										d="M76.6,137.4l.3,1,7,19.8,4.7-1.5-3,3.4,19.3,31.7.6,6.8s1.2-7.6.5-8.5c-1.6-2.3-18.8-29.3-18.8-29.3l3.5-5.6-6.2.5-7.9-18.3Z" />
								</g>
								<g class="cls-10">
									<polygon
										points="116.2 177.8 116.9 162.6 114.8 181.2 118.7 182.7 114.2 197.9 115.9 199 119.8 182.4 116.2 177.8" />
								</g>
								<path class="cls-44" d="M115.7,181.3l2-7.1c0-.5.7-.9,1.3-.7h0c.5.2.7.8.6,1.3l-2.1,7.4-1.9-.9Z" />
								<path class="cls-26"
									d="M136,248c-.8.1-1.5.1-2.2,0l-5.9-.3c-4.9-.3-11.9-.7-19.4-.9-6.5-.2-13,.1-19.5.7-2.5.2-4.5.5-5.9.7-.8.1-1.5.2-2.2.2.7-.2,1.4-.3,2.1-.4,1.3-.3,3.3-.6,5.8-.9,6.4-.8,12.9-1.1,19.4-.9,7.7.2,14.5.7,19.5,1.1l5.9.5c.7,0,1.5,0,2.4.2Z" />
								<g id="doctor-right-hand">
									<path class="cls-48"
										d="M208.3,212.7s-14.8-1.2-16.6-1.2-8.4,4-8.4,4l-7.1-1.2-7.1,12.5,14.9,1s4.1,2.3,6.5,2.5,17.1.3,17.1.3l5.9-2.9s2.6-.5,1.9-2.5c-.4-1.1-1.6-1.7-2.7-1.5,0,0,4.4.8,4.9-1.5.6-2.3-1.2-2.6-2.2-2.8-1-.1-4.3-1.3-4.3-1.3,0,0,4.9.6,5.5-.2.6-.7.5-1.8-.2-2.4-.1,0-.1-.1-.2-.1-.9-1-2.3-1.6-3.7-1.6-1.8-.1-3.9-.3-3.9-.3l-.3-.8Z" />
									<path class="cls-49"
										d="M189.1,223.9h1.1c.8-.1,1.6-.4,2.4-.7.2-.1.4-.3.7-.4.2-.1.4-.3.7-.5.5-.4,1-.9,1.4-1.4.5-.5.9-1.1,1.2-1.8.4-.7.6-1.4.7-2.2h0c0-.1.1-.1.1-.1h.4c1.6.4,3.1.5,4.7.3.7-.1,1.3-.2,2-.3.5-.2,1.1-.4,1.6-.7.7-.5,1.3-1.1,1.8-1.8.3-.5.4-.8.4-.8v.2c-.2.2-.3.4-.4.6-.4.8-1,1.4-1.8,1.9-.6.3-1.1.5-1.7.7-.7.1-1.4.2-2.1.3-1.6.2-3.2.1-4.8-.2h-.4c0-.1.2-.2.2-.2-.1.8-.3,1.6-.7,2.3-.3.7-.7,1.3-1.2,1.9-.5.5-1,1-1.5,1.4-.3.2-.6.3-.8.5s-.5.3-.7.4c-.7.3-1.6.5-2.4.6h-.9Z" />
								</g>
								<path class="cls-21"
									d="M177.9,213.2l-43-22-14.5-39.7-8,45.3s7.1,19.6,17,23.7c3.3,1.3,38.7,10.2,38.7,10.2l9.8-17.5Z" />
								<path class="cls-26"
									d="M134.7,191.2v.2c0,.2-.1.4,0,.7,0,.3-.2.6-.2,1s-.1.9-.2,1.4c-.2,1-.3,2.2-.4,3.6-.1,1.5-.1,2.9,0,4.4.1,1.4.3,2.9.6,4.3.2,1.2.5,2.4.8,3.5.1.5.3.9.4,1.3s.2.7.3,1l.2.6v.2-.2l-.3-.6c-.2-.3-.3-.7-.4-1-.1-.4-.3-.8-.4-1.3-.4-1.2-.7-2.3-.9-3.5-.3-1.5-.5-2.9-.6-4.4s-.1-2.9,0-4.4c.1-1.2.2-2.4.4-3.6.1-.6.2-1,.3-1.4,0-.4.1-.7.2-1l.2-.6v-.2h0Z" />
								<path class="cls-26" d="M167.1,183.7" />
								<g class="cls-10">
									<path
										d="M50,180.2s.5,39.7,3.7,43.9c3.4,3.2,9.2,3.2,17.3,4.9,8.7,1.9,28,1.9,28,1.9,0,0-41.6-16.5-41.5-17.6s-7.5-33.1-7.5-33.1Z" />
								</g>
								<polygon class="cls-36" points="162.5 233.4 167.5 204.4 140.9 204.2 145.1 233.4 162.5 233.4" />
								<path class="cls-36"
									d="M166.7,210.8s12-1.2,11.1,8.7-14.4,7.1-14.4,7.1v-3.8s10.7-.2,9.4-4.3-8.3-3.5-8.3-3.5l2.2-4.2Z" />
								<g class="cls-10">
									<path
										d="M152.2,221.4c0-1.1.3-2.2.9-3.1.5-.8,1.1-1.4,1.6-2.1.4-.6.8-1.2,1-2,.1-.3.1-.6.2-.9h.1c.7.6,1.2,1.3,1.3,2.1s.1,1.7-.1,2.5c-.2,1-.6,1.9-1.3,2.6-.8.8-2,1.2-3.1,1-.2,0-.4-.1-.6-.1Z" />
									<path
										d="M151,218.6c0-1.1.3-2.2.6-3.2.4-1.1,1.3-1.9,2.4-2.2.6-.1,1.2-.1,1.7.1,0,.3-.1.6-.2.9-.3.7-.6,1.3-1.1,1.8-.5.6-1.1,1.3-1.6,2.1-.5.8-.8,1.6-.9,2.5v.5c-.3-.2-.5-.4-.7-.7-.2-.5-.3-1.1-.2-1.8Z" />
								</g>
								<g>
									<path class="cls-48"
										d="M119,212.6s7,1.1,9.5.4c2.5-.6,3.1-1.5,5.9-1.5s15.1.8,15.1.8c0,0,10.5.2,11.2,1.8.2.6.2,1.2-.1,1.7-.6.7-2.8,1.1-3.5,1.1-.6-.1-14.3-.2-14.3-.2,0,0-.5.1,0,.4.6.3,16.3.2,17,1,.5.8.3,1.9-.5,2.4-.2.1-.4.2-.6.2-1.3.3-14.6,1.5-15.1,1.3s9.6.7,10.5.5,4.9-1.1,5.3.3-.6,2.2-3,3.3c-1.8.6-3.7.9-5.6.7.2,1-.3,2.1-1.3,2.5-1.7,1-10.8,2-13.1,1.2s-19.7-2.5-19.7-2.5l2.3-15.4Z" />
									<path class="cls-49"
										d="M140.9,227.3c1.6-.1,3.2-.2,4.8-.2,2.7-.1,4.9-.1,4.9,0-1.6.1-3.2.2-4.8.2h-4.9Z" />
								</g>
								<path class="cls-21"
									d="M74.8,159.4c-.2,1.3.7,45.9.7,45.9,0,0,11.2-1.1,16.4-.1,6.9,1.3,28.3,4.1,28.3,4.1l-1.5,20.7c-10.6.9-21.3.8-31.9-.3-15.3-1.8-30.3-1.5-33.8-7.6-5.5-7.3-1.6-48.5-3-55" />
								<path class="cls-26"
									d="M50.6,213.9c.6,2.8,1.5,5.4,2.7,8,.3.7.7,1.3,1.2,1.8s1.1.9,1.8,1.2c1.4.6,2.9,1,4.4,1.3,3.1.6,6.3,1,9.6,1.4l10.1,1.1c3.5.4,7,.8,10.6,1.1,7.4.5,14.9.6,22.3.2,1.8-.1,3.6-.2,5.3-.4l-.2.2,1.4-20.7.2.2c-7.8-1-44.8-4-44.8-4h0v-.2c-1.1-13.1.7-26.7.2-34.2-.3-3.7-.5-6.6-.6-8.6v-3.1.8c0,.6,0,1.3.2,2.3.2,2,.4,4.9.7,8.6.6,7.5-1.2,21.1,0,34.2l-.2-.2s37.2,3,44.8,4h.2v.2c-.4,6.6-.9,13.6-1.4,20.7v.2h-.2c-1.7.2-3.5.3-5.3.4-7.5.4-15,.4-22.4-.2-3.6-.3-7.2-.8-10.6-1.1-3.4-.3-6.8-.8-10.1-1.1-3.3-.4-6.5-.9-9.6-1.5-1.5-.3-3-.7-4.5-1.3-.7-.2-1.3-.7-1.9-1.2-.5-.6-.9-1.2-1.3-1.9-1.2-2.6-2.1-5.3-2.7-8.1-.6-2.6-.3-2.7.3-.1Z" />
								<path class="cls-26"
									d="M55,148.1h.2c.2-.1.3-.3.6-.4.8-.3,1.6-.6,2.4-.8,1.2-.3,2.4-.3,3.6-.3,1.5.1,3,.3,4.4.8,1.4.5,2.7,1.3,3.9,2.2.9.8,1.8,1.6,2.5,2.6.5.7.9,1.3,1.3,2.1,0,.3.2.4.3.6,0,.1,0,.2,0,.3-.2-.3-.3-.5-.4-.8-.4-.7-.8-1.3-1.3-2-.8-.9-1.6-1.8-2.5-2.5-1.1-.8-2.4-1.6-3.8-2.1-2.5-.8-5.2-1.1-7.8-.5-.8.2-1.6.3-2.4.7-.6.1-.8.2-1.1.1Z" />
								<path class="cls-26"
									d="M75.5,205.1s-.6.3-1.5,1-2.2,1.5-3.5,2.5c-1.4,1-2.6,1.9-3.4,2.6-.5.4-.9.8-1.4,1.1,0-.2.2-.3.3-.4l.9-.9c.8-.7,2-1.7,3.3-2.6s2.5-1.8,3.5-2.4l1.1-.7c0-.1.2-.2.7-.2Z" />
							</g>
						</g>
						<g id="ponnytail">
							<g class="cls-10">
								<path
									d="M109.9,181.8c0-3.8,1.1-7.6,1.9-11.4,1.8-10-.4-20.2-2.6-30.2,0-.4-.3-.8-.6-1.1-.5-.4-1.2.1-1.6.5-1.4,1.6-2,3.7-1.5,5.8.3,1.2.8,2.1.7,3.4,0,1.2-1,2.2-1.5,3.3-1,2-.7,4.3-.3,6.4.4,2.1,1.2,4.2,1,6.4,0,2-.9,4-1.1,6.1-.3,4.1,1.6,8.1,5.2,10.4" />
							</g>
							<path class="cls-22"
								d="M107.7,160.2c1.2,1.8,2.7,3.7,4.9,4.2,3.1.6,6.2-2.3,6.9-5.4.7-3.1-.2-6.4-1.1-9.4,1.1-1,2-2.2,2.3-3.7.9-3.9-1.5-7.8-5.4-8.8-.5-3.4-4-6.2-7.3-5.1,0,0-.8,4.5-.8,6.9-1.4,2.3-2.2,4.7-.7,8.4.3,1.2.9,2.2.9,3.4s-1,2.8-1.3,4.3c-.2,1.9.6,3.8,1.6,5.2Z" />
							<path class="cls-29"
								d="M109.7,137.6c.8-.5,1.6-.7,2.5-.8.9-.2,1.8-.1,2.6.1.4,0,.7.2,1,.3-2.3-.6-4.9-.3-7.1.9.3-.2.6-.4,1-.5Z" />
							<path class="cls-29"
								d="M111.2,152.6c2.1.2,4.1-.4,5.8-1.6.7-.4,1.1-.8,1.1-.8,0,0,0,.1-.2.3s-.4.4-.7.6c-1.6,1.3-3.8,1.9-5.9,1.6-.3-.1-.6-.2-.9-.2,0-.1-.2-.1-.3-.2,0,0,.5.2,1.1.3Z" />
							<path class="cls-29"
								d="M108.1,149.9c0-.2.2-.4.3-.7,0-.3.2-.6.3-.9.4-.7.8-1.5,1.3-2.2.6-.8,1.3-1.7,1.9-2.4.7-.7,1.4-1.5,2.3-2.2.7-.5,1.3-1,2.1-1.4.3-.2.6-.3.9-.5.3-.1.5-.2.7-.3s.4-.2.6-.2c0,0-.8.4-2,1.1-.7.4-1.3.9-2,1.4-.9.7-1.6,1.4-2.3,2.2-.7.7-1.3,1.6-1.8,2.4-.5.7-.9,1.5-1.3,2.2-.6,1.3-1,2.2-1,2.2,0-.3,0-.5,0-.7Z" />
							<path class="cls-29"
								d="M109.8,134.3c.5-.5,1-1,1.7-1.2,0,0-.8.6-1.5,1.4-.7.9-1.1,1.7-1.2,1.7.2-.7.4-1.4,1-1.9Z" />
							<path class="cls-29"
								d="M108.9,154.4c.4.1.8.2,1.3.4,1.4.6,2.7,1.3,3.9,2.1,1.2.9,2.3,1.9,3.3,3,.4.4.7.8.9,1,0,.1,0,.2.2.4,0,.1-.5-.5-1.3-1.3-1.1-1-2.1-2.1-3.4-2.9-1.2-.8-2.5-1.5-3.8-2.2-1.1-.4-1.7-.7-1.7-.7.2,0,.4.2.6.2Z" />
							<path class="cls-29"
								d="M115.8,147.9c-1-2.8-2.7-5.2-5.1-7.1-1-.7-1.5-1.1-1.5-1.1,0,0,.3.1.4.2.4.2.8.4,1.1.7,2.4,1.8,4.2,4.3,5.1,7.2,0,.4.2.9.3,1.3v.5s-.1-.7-.3-1.7Z" />
							<path class="cls-29"
								d="M111.6,160.4c.2-1,.7-1.9,1.2-2.9.5-.9,1.3-1.7,2-2.4s.7-.5,1.1-.8c0,0-.4.3-.9.9-1.4,1.4-2.6,3.3-3.2,5.2-.2.4-.2.8-.4,1.2,0-.3,0-.7.2-1.2Z" />
							<path class="cls-22"
								d="M107.1,177.2c1,3.1,3.7,5.9,7,6.5-.7-.9-1.1-1.9-1.1-3,1,1,2.2,1.8,3.5,2.1-1.1-.6-1.7-2.1-1.6-3.5s.7-2.7,1.5-3.8c.7-1.1,1.3-2.4,1.9-3.6.6-2.4,0-5.1-1.9-6.9l-5.4-.9c-1.6.4-2.6,1.9-3.2,3.4-1.3,3-1.8,6.4-.7,9.7Z" />
							<path class="cls-36"
								d="M108.8,165.6c.9.7,1.9,1.2,3,1.3,1,.2,2.1.3,3.2.1,1.1-.3,2-.8,2.7-1.7.4-.4.5-.8.5-1.3,0-.5-.5-1-1-1.2h0c-2.2.8-4.8.7-6.9-.6-.5-.4-1.3-.8-1.8-.6-.4.2-.7.6-.7,1.1-.3,1.1.2,2.2,1.1,2.9Z" />
						</g>
					</g>
					<path class="cls-26" d="M101.9,252.9c-.2,1.3-14.3,41.7-14.3,41.7h-14.6l14.1-41.7h14.8Z" />
					<path class="cls-26"
						d="M128.6,249.6c-5.6-2.5-20.5-7.8-46.9-7.5-25.8.3-35.4,3.2-38.9,5-1.2.6-1.9,1.9-1.9,3.2v4.2c0,1,.9,1.9,1.9,1.9h84.6c1.8-.1,3.4-1.6,3.4-3.5s-.9-2.8-2.2-3.3Z" />
					<path class="cls-44"
						d="M128.6,249.6c.2,0,.4.1.5.2.4.3.8.6,1,1.1.6.5.8,1.3.8,2.2-.1,1.8-1.6,3.3-3.5,3.3h-49.3c0,.1-18.1.1-18.1.1h-16.9c-.4.1-.9,0-1.3-.2s-.8-.6-1-1-.2-.8-.2-1.2v-3.7c0-.9.3-1.8.8-2.5.3-.4.6-.7,1-.9.3-.2.7-.4,1.1-.6,3-1.2,6.1-2,9.3-2.5,6-1,12-1.6,18-1.8,5.8-.3,11.3-.4,16.4-.3s9.9.4,14.2.9c6.8.7,13.6,2.1,20.2,4.1,2.4.7,4.7,1.6,7,2.8l-.5-.3-1.4-.5c-1.2-.4-3-1.1-5.3-1.8-6.6-1.9-13.4-3.2-20.2-3.9-4.3-.4-9.1-.7-14.2-.8s-10.6,0-16.3.3c-6,.2-12,.8-17.9,1.8-3.1.5-6.2,1.3-9.1,2.5-3.5.9-2.5,5.4-2.4,8.2,0,.4.4.6.7.8.3.2.7.2,1.1.2h82.2c1.5,0,2.9.2,3.9-.5.8-.5,1.4-1.5,1.5-2.5.1-.8-.1-1.6-.6-2.2-.4-.6-.9-1-1.5-1.3Z" />
				</g>
				<g id="table">
					<rect class="cls-44" x="79" y="243.2" width="10.4" height="174.6" />
					<path class="cls-26"
						d="M89.3,417.8s0-.3,0-.9c0-.6,0-1.5.2-2.5v-10.1c0-8.8,0-21.5,0-37.3,0-31.5,0-75.2,0-124l.2.2h-10.5l.2-.2c0,81.8-.2,151.1-.2,175h0c0-.1,7.8-.1,7.8-.1h2.5c0-.1-.6,0-.6,0h-9.8c0-23.9,0-93.3-.2-175.1v-.2h10.9v.2c0,48.8,0,92.6,0,124.2s0,28.4,0,37.2v12.7c0,.6-.1.9-.1.9Z" />
					<rect class="cls-44" x="320.8" y="240.8" width="10" height="177.1" />
					<rect class="cls-44" x="215.9" y="234.5" width="10" height="183.4" />
					<path class="cls-26"
						d="M331.2,417.9v-13.8c0-8.9,0-21.8-.1-37.8,0-31.9-.1-76.1-.1-125.5l.2.2h-10l.2-.2c-.1,82.8-.2,153-.2,177.1h-.1c0-.1,7.5-.1,7.5-.1h2.5-10.2c0-24.2-.1-94.4-.2-177.2v-.2h10.5v.3c0,49.4-.1,93.8-.1,125.7s-.1,28.8-.1,37.7v12.8c0,.6.2,1,.2,1Z" />
					<rect class="cls-44" x="3.3" y="232.9" width="351.9" height="10.9" />
					<path class="cls-26"
						d="M355.4,243.5c0-.4,0-3.5-.1-10.9h.1c0,.1-351.1.3-351.1.3h0l.3-.2v10.9l-.3-.2h248.6c0,.1,75,.2,75,.2h27.5-102.3c0,.1-248.9.2-248.9.2h-.3v-11.3h.3l351.1.2h.1v8.4c0,1.9-.1,2.7,0,2.4Z" />
					<path class="cls-26" d="M164.7,243.5c-.3-3.5-.3-7.1,0-10.6.3,3.5.3,7,0,10.6Z" />
				</g>
				<g id="laptop">
					<path class="cls-26"
						d="M236.9,233.5l17.4-43.8c1.2-2.9-.2-6.3-3.1-7.5-.7-.3-1.4-.4-2.2-.4h-54.3c-2.5,0-4.6,1.6-5.4,3.9l-15,44.1h-17.5c-1.4.1-2.6,2-2.6,3.4h19.3l63.4.3Z" />
					<path class="cls-41"
						d="M214.2,210.1c0,1.9,1.6,3.5,3.5,3.5s3.5-1.6,3.5-3.5-1.6-3.5-3.5-3.5h0c-2,0-3.5,1.5-3.5,3.5Z" />
				</g>
			</g>
			<line id="floor" class="cls-5" x1="-1.9" y1="416.4" x2="520.1" y2="416.4" />
			<g id="coffee">
				<g id="coffee-smoke" class="cls-37">
					<path class="cls-36"
						d="M137.4,179.6c.1-1.5.5-2.9,1.2-4.2.6-1.1,1.3-2,2.2-2.9.9-.8,1.9-1.6,2.9-2.2.2-.1.4-.2.6-.2.2-.1.4-.2.5-.3.8-.7,1.3-1.6,1.7-2.5.3-.9.7-1.7,1.4-2.4.6-.5,1.8-.5,3.1.5,1.7,1.7,2.6,4.1,2.3,6.5-.1.9-.2,1.7-.5,2.5-.3.9-.8,1.7-1.3,2.5-1,1.4-1.9,2.5-2.2,3.1v.2c-.1,0,.2,0,.2,0h0c0,.1.1.1.1.2.1.2.2.5.3.7.2.3.4.6.6.9.2.3.5.7.9,1.1.8.9,1.7,1.9,2.7,3.1,1,1.3,1.9,2.6,2.6,4.1.7,1.6,1.1,3.3,1.1,5,0,3-1.5,5.6-3.2,6.5s-2.8.5-3.2-.2c-.3-.8-.6-1.7-.7-2.5-.4-.9-.9-1.7-1.5-2.4-.3-.4-.7-.7-1.2-1-.5-.4-1.2-.9-2-1.5s-1.9-1.4-3.2-2.5c-.7-.6-1.4-1.3-2-2-.7-.8-1.3-1.8-1.8-2.7-1.2-2.3-1.7-4.8-1.6-7.4Z" />
				</g>
			</g>
			<g id="pictures">
				<polygon class="cls-30" points="509.3 107.4 673.9 107.4 673.2 308.4 508.9 308.4 509.3 107.4" />
				<path class="cls-26"
					d="M673.5,307.3c0-1.6,1-70.8.2-200.1l.2.2h-164.6v.9l.2-.2c.4,81.2-.5,137.6-.2,199.3l-.4.7,164.6-.8-164.6,1.1.4-1.1h0c-.4-61.6.2-118-.2-199.3v-.2h.2l164.6-.9h.2v.2c.6,129.4-.6,198.6-.6,200.2Z" />
				<path class="cls-44" d="M662.1,124.9c0,.6-.4,1-1,1s-1-.4-1-1,.4-1,1-1h0c.6,0,1,.4,1,1Z" />
				<path class="cls-44" d="M662.1,128.5c0,.6-.4,1-1,1s-1-.4-1-1,.4-1,1-1h0c.6,0,1,.4,1,1Z" />
				<path class="cls-44" d="M662.1,132.1c0,.6-.4,1-1,1s-1-.4-1-1,.4-1,1-1h0c.6,0,1,.4,1,1h0Z" />
				<polygon class="cls-29" points="521.5 145.5 662.2 145.2 662.2 289.4 521.5 289.4 521.5 145.5" />
				<g id="gauge">
					<path class="cls-39"
						d="M553,116.9l-1.6,4.5c-.2.6,0,1.2.6,1.4,5.2,2.5,8.9,7.6,9.3,13.7,0,.6.6,1.1,1.2,1.1h4.7c.6,0,1.2-.6,1.2-1.2-.5-9-6-16.6-13.8-20.1-.6-.4-1.4,0-1.6.6Z" />
					<path class="cls-11"
						d="M533.1,124.9c.4.4,1.1.5,1.6.1,2.8-2.3,6.4-3.8,10.4-3.8s2.8.2,4.1.5c.6.2,1.2-.2,1.4-.7l1.6-4.5c.2-.6,0-1.4-.8-1.5-2-.6-4.1-.8-6.3-.8-5.8,0-11.1,2.1-15.3,5.7-.5.4-.6,1.2,0,1.7l3.4,3.3Z" />
					<path class="cls-36"
						d="M527.4,122.3c-3.3,3.8-5.4,8.7-5.7,14,0,.6.5,1.2,1.2,1.2h4.7c.6,0,1.1-.5,1.2-1.1.2-3.5,1.6-6.8,3.7-9.3.4-.5.4-1.2,0-1.6l-3.4-3.4c-.4-.4-1.1-.4-1.6.2Z" />
					<path id="needle" class="cls-26"
						d="M546.8,136.3c.6,1,.3,2.3-.7,2.9-1,.6-2.3.3-2.9-.7s-6-13.1-6-13.1c0,0,9,9.9,9.6,10.9Z" />
					<path class="cls-11"
						d="M547.4,126.4l-2.2,5.2h-1.3c0,0,0-.1,0-.1l2.1-4.7q0-.1,0-.1h-2.7s0,0,0-.1v-.9s0-.1,0-.1h4.1s0,0,0,.1v.7h.1Z" />
				</g>
				<g>
					<path class="cls-44"
						d="M652.1,136.9h-16.3c-.6,0-1.2-.4-1.6-.9s-.4-1.2,0-1.8l8.2-14.2c.4-.5.9-.9,1.6-.9h0c.6,0,1.2.4,1.6.9l8.2,14.2c.4.5.4,1.2,0,1.8-.5.6-1.1.9-1.7.9ZM644,121h-.2l-8.2,14.2h0c0,.1,16.3.1,16.3.1l.8-.5-.8.4-8-14.2Z" />
					<path class="cls-44"
						d="M643.9,132.2c.3,0,.5.1.6.2.2.2.2.4.2.5s0,.5-.2.5c-.2.2-.4.2-.6.2-.3,0-.5-.1-.6-.2-.2-.2-.2-.4-.2-.5s0-.5.2-.5.4-.2.6-.2ZM644.6,131.4h-1.4l-.2-5.6h1.7v5.6Z" />
				</g>
				<g id="picture">
					<g id="acne">
						<path class="cls-38"
							d="M652.7,251.8c-2.9-5.3-2.9-12.8-2.9-12.8,0,0-1-21.9-3.2-40.4-2.4-20.5-19.9-23.8-19.9-23.8l-1.7,38.3s5.4,37.2,6.2,44,4.2,25.4,8.4,32h21.2c-1.4-12.2-5.2-32-8.1-37.3Z" />
						<path class="cls-38"
							d="M548.7,273.5c.4-4.7,5.6-56.4,5.6-56.4l2.1-41.4s-11.4,1.6-17.2,12.3c-2.8,5.2-6.3,54.6-6.3,54.6,0,0-4.6,18.4-5.4,25.7l-1.1,21.3h20.9c0-.1,1.4-16.1,1.4-16.1Z" />
						<path class="cls-38"
							d="M549.2,178.1l4.8,66.2-1.6,45.2,76-.3-.3-39.1c0-2.2.4-6.9.6-9.1l3.9-52.8-5.9-13.4-26.8-6.1-26.4-.7-24.3,10.1Z" />
						<g id="acne-boundingbox">
							<path class="cls-43"
								d="M562,202.3c-.2,1.6,1.3,3,2.9,2.6,1.9-.4,3.9-1.4,4-2.4.2-1.8-1-3.4-2.3-4s-2.9.9-4.3,1.1l-.3,2.7Z" />
							<path class="cls-29"
								d="M564.3,201.1c0,.2-.2.5-.2.8s0,.6,0,.9c.2.4.5.3.7.1s.4-.5.7-.6c.2-.1.4,0,.5.1.2,0,.8-.5.8-.8,0-.6-2-1.6-2.6-.5Z" />
							<rect class="cls-2" x="559.5" y="194.9" width="11.8" height="13.1"
								transform="translate(-1.3 3.7) rotate(-.4)" />
							<g>
								<path class="cls-43"
									d="M593.1,217.7c0,.9.7,1.7,1.6,1.5,1-.2,2.2-.8,2.2-1.4,0-1-.5-1.9-1.3-2.3s-1.6.5-2.4.6v1.6Z" />
								<path class="cls-29"
									d="M594.3,217c0,.1,0,.3,0,.4v.5c0,.2.3.2.4.1,0-.1.2-.3.4-.3h.3c0,0,.5-.3.5-.5,0-.2-1.1-.8-1.5-.2Z" />
								<rect class="cls-2" x="591.7" y="213.5" width="6.6" height="7.3"
									transform="translate(-1.4 3.9) rotate(-.4)" />
							</g>
							<g>
								<path class="cls-43"
									d="M609.6,211c0,.9.7,1.7,1.6,1.5,1-.2,2.2-.8,2.2-1.4,0-1-.5-1.9-1.3-2.3-.7-.3-1.6.5-2.4.6v1.6Z" />
								<path class="cls-29"
									d="M610.9,210.4c0,.1,0,.3,0,.4v.5c0,.2.3.2.4.1,0-.1.2-.3.4-.3h.3c0,0,.5-.3.5-.5-.1-.2-1.2-.8-1.5-.2Z" />
								<rect class="cls-2" x="608.2" y="206.9" width="6.6" height="7.3"
									transform="translate(-1.4 4) rotate(-.4)" />
							</g>
							<g>
								<path class="cls-43"
									d="M594.1,235.8c0,.9.7,1.7,1.6,1.5,1-.2,2.2-.8,2.2-1.4,0-1-.5-1.9-1.3-2.3-.7-.3-1.6.5-2.4.6v1.6Z" />
								<path class="cls-29"
									d="M595.4,235.2c0,.1,0,.3,0,.4v.5c0,.2.3.2.4.1,0-.1.2-.3.4-.3h.3c0,0,.5-.3.5-.5-.1-.3-1.2-.8-1.5-.2Z" />
								<rect class="cls-2" x="592.7" y="231.7" width="6.6" height="7.3"
									transform="translate(-1.5 3.9) rotate(-.4)" />
							</g>
							<g>
								<path class="cls-43"
									d="M614.8,243.2c0,1.1.9,2.1,2,1.8,1.3-.3,2.7-1,2.8-1.7,0-1.2-.7-2.4-1.6-2.8-.9-.4-2,.6-3,.8l-.2,1.9Z" />
								<path class="cls-29"
									d="M616.4,242.4c0,.1,0,.3-.2.5s0,.4,0,.6.3.2.5.1.3-.3.5-.4h.4c.2,0,.6-.3.6-.6,0-.2-1.5-.9-1.9-.2Z" />
								<rect class="cls-3" x="613.1" y="238.1" width="8.2" height="9.1"
									transform="translate(-1.6 4) rotate(-.4)" />
							</g>
							<g>
								<path class="cls-43"
									d="M597,252.1c-.2,1.6,1.3,3,2.9,2.6,1.9-.4,3.9-1.4,4-2.4.2-1.8-1-3.4-2.3-4s-2.9.9-4.3,1.1l-.3,2.7Z" />
								<path class="cls-29"
									d="M599.3,251c0,.2-.2.5-.2.8s0,.6,0,.9c.2.4.5.3.7.1.2-.2.4-.5.7-.6.2-.1.4,0,.5.1.2,0,.8-.5.8-.8,0-.6-2-1.6-2.6-.5Z" />
								<rect class="cls-2" x="594.5" y="244.8" width="11.8" height="13.1"
									transform="translate(-1.6 3.9) rotate(-.4)" />
							</g>
							<g>
								<path class="cls-43"
									d="M564,267c-.2,1.6,1.3,3,2.9,2.6,1.9-.4,3.9-1.4,4-2.4.2-1.8-1-3.4-2.3-4s-2.9.9-4.3,1.1l-.3,2.7Z" />
								<path class="cls-29"
									d="M566.3,265.8c0,.2-.2.5-.2.8s0,.6,0,.9c.2.4.5.3.7.1.2-.2.4-.5.7-.6.2-.1.4,0,.5.1.2,0,.8-.5.8-.8,0-.6-2.1-1.6-2.6-.5Z" />
								<rect class="cls-2" x="561.5" y="259.6" width="11.8" height="13.1"
									transform="translate(-1.7 3.7) rotate(-.4)" />
							</g>
							<g>
								<path class="cls-43"
									d="M580.1,245.1c0,.9.7,1.7,1.6,1.5,1-.2,2.2-.8,2.2-1.4,0-1-.5-1.9-1.3-2.3-.7-.3-1.6.5-2.4.6v1.6Z" />
								<path class="cls-29"
									d="M581.4,244.5c0,.1,0,.3,0,.4v.5c0,.2.3.2.4.1,0-.1.2-.3.4-.3h.3c0,0,.5-.3.5-.5,0-.2-1.2-.8-1.5-.2Z" />
								<rect class="cls-2" x="578.7" y="241" width="6.6" height="7.3"
									transform="translate(-1.6 3.8) rotate(-.4)" />
							</g>
							<g>
								<path class="cls-43"
									d="M611.8,267.8c0,.9.7,1.7,1.6,1.5,1-.2,2.2-.8,2.2-1.4,0-1-.5-1.9-1.3-2.3-.7-.3-1.6.5-2.4.6v1.6Z" />
								<path class="cls-29"
									d="M613.1,267.1c0,.1,0,.3,0,.4v.5c0,.2.3.2.4.1,0-.1.2-.3.4-.3h.3c0,0,.5-.3.5-.5-.1-.2-1.2-.8-1.5-.2Z" />
								<rect class="cls-2" x="610.4" y="263.7" width="6.6" height="7.3"
									transform="translate(-1.7 4) rotate(-.4)" />
							</g>
						</g>
						<path class="cls-49" d="M579.1,224.4c0,.2-3.6.5-8.1.7s-8.1.2-8.1,0,3.6-.5,8.1-.7,8.1-.2,8.1,0Z" />
						<path class="cls-49" d="M617.6,224.7c0,.2-3.4.1-7.6-.1s-7.6-.5-7.6-.7,3.4-.1,7.6.1c4.2.2,7.6.5,7.6.7Z" />
						<path class="cls-49"
							d="M589.5,279.7c0,.1-.5,0-.7-.7-.2-.8.2-1.6,1-1.8.8-.2,1.6.2,1.8,1,0,.4,0,.7,0,1.1-.3.6-.8.6-.8.6,0,0,.3-.3.4-.7.2-.5,0-1-.6-1.2s-1,.1-1.2.6c0,.1,0,.3,0,.4,0,.4.3.6.2.7Z" />
						<path class="cls-49"
							d="M551.1,199c0,.3,0,.6,0,.9,0,.7,0,1.5,0,2.6,0,2.3.3,5.6.7,9.7s1,8.9,1.7,14.3c.3,2.7.6,5.5.7,8.5s0,6,0,9.1c-.4,12.5-.8,23.8-1.2,32s-.4,7.4-.6,9.7c0,1.1-.2,2-.2,2.6s0,.6,0,.9v-.9c0-.7,0-1.5,0-2.6,0-2.4.2-5.6.4-9.7.3-8.2.7-19.5,1-32,0-3.1.2-6.2,0-9.1,0-2.9-.4-5.8-.7-8.4-.6-5.4-1.2-10.2-1.6-14.3-.3-4.1-.5-7.4-.5-9.7v-2.6c0-.4,0-.7,0-1Z" />
						<path class="cls-49"
							d="M632,195.6c0,.3,0,.6,0,1v2.7c0,2.4-.2,5.8-.6,10.1-.4,4.2-1.1,9.3-1.8,14.8-.3,2.8-.7,5.7-.9,8.8,0,1.5,0,3.1-.2,4.6v4.8c0,12.9,0,24.7,0,33.2s0,7.6,0,10.1,0,2.1,0,2.7c0,.3,0,.6,0,1,0-.3,0-.6,0-1,0-.7,0-1.6,0-2.7,0-2.4,0-5.9,0-10.1,0-8.6,0-20.3,0-33.2v-4.8c0-1.6,0-3.1.2-4.7.2-3.1.6-6,.9-8.8.7-5.6,1.5-10.6,1.9-14.8.4-4.2.7-7.7.8-10,0-1.1,0-2.1,0-2.7.2-.4.2-.7.3-1Z" />
						<path class="cls-38"
							d="M573.6,171.8l-.9-26.4h43.8c-.6,12.4-13.2,15.6-13.2,15.6v11.3l-.7,8.6-6.7-2.5-22.3-6.6Z" />
						<path class="cls-49" d="M603.3,160.5s-7.9.2-16.1-5.4c0,0,3.6,9.6,16.1,8.9v-3.5Z" />
					</g>
					<g id="logo">
						<g>
							<path class="cls-23"
								d="M553.6,297.9c0,0,.2,0,.3-.1h0c0,.1-.2.2-.2.2h0q0,.1,0,.1c0,0,0,.1,0,.2s0,.1.2.1h.2c.3,0,.6-.2.9-.4,0-.1.2-.1.3-.2h0c0-.1,0-.2,0-.2h0q0,.1,0,.2c0,.2-.3.4-.5.5h0c0,0,0,.1,0,.1,0,.1,0,.1.2.1h0c.2,0,.4-.1.6-.2.4-.2.6-.6.9-1h0c0-.1,0-.2.2-.2.5,0,.9.1,1.4.3h0c0,.1-.2.1-.3.1h0c-.3,0-.7,0-1,.1s-.5.2-.6.4h0c0,.1,0,.1,0,.2,0,.1,0,0,.2,0h.3c.5-.1,1.1-.1,1.6,0h.4c1.1.1,2-.1,2.8-.5s.7-.4,1-.7h0c0,0,0-.1,0-.1,0-.1,0,0,0,0h0c0,0,0,.1-.2.1,0,0,0,0,0,.1-.8.3-1.5.4-2.2.2-.3-.1-.7-.2-1-.4q0,0-.2-.1c-.5-.2-1-.4-1.4-.4s-.3,0-.4.2c-.3.6-.6,1-1,1.3-.2.1-.3.3-.6.3h0c.6-.6,1-1.4,1.3-2,.2-.3.4-.5.8-.5,1.9,0,3.8.3,5.5,1.1h0c0,0,0,.1,0,0h0v-.2h0q0-.1,0-.1c-.9-.4-1.9-.7-2.9-.9-1.2-.2-2.3-.3-3.2-.2-.3,0-.7.1-.9.3-.2.2-.5.4-.7.6h0c-.6.4-1.3.7-1.9,1h0q0,0,0,.1c0,.1,0,.1,0,.1h0c.2.1.3.1.5.1,0,.4.1.4.2.3ZM556.5,297.1c0-.2,0-.2.2-.2.2,0,.3,0,.5.1.5.1.9.3,1.3.5,0,0,.2.1.3.1.8.3,1.5.4,2.2.2h.2,0c-.4.3-1,.5-1.6.6-.3,0-.5.1-.8.1s-.8,0-1.2-.1h0c-.5,0-.8,0-1.3.1h0c.2-.2.4-.3.5-.3.3-.1.5-.1.8-.1h1.1c.2.1.5.2.8.3h0c0-.1,0-.1,0-.1h0c-.4-.1-.7-.3-1-.4-.2-.1-.4-.2-.6-.2-.3-.1-.6-.2-1-.2h0c-.1-.3-.2-.3-.2-.4h0ZM556.1,296h0c-.3,1.1-1.6,2.3-2.4,2.4h0c1.1-.9,1.8-1.6,2.5-2.4h0ZM553,297.8h0c1-.5,1.8-.9,2.4-1.5h0c0-.1,0,0,0,0-.5.7-1.5,1.4-2.3,1.5,0,0,0,0-.1,0Z" />
							<path class="cls-19"
								d="M562.8,300.3h0c-.2-.1-.3-.1-.5-.1s-.2,0-.4.1c0,0-.2,0-.3.1h0c0-.1.2-.2.2-.2h0q0-.1,0-.1c0,0,0-.1,0-.2s0-.1-.2-.1h-.2c-.3,0-.6.2-.9.4,0,.1-.2.1-.3.2h0c0,.1,0,.2,0,.2h0q0-.1,0-.2c0-.2.3-.4.5-.5h0c0,0,0-.1,0-.1,0-.1,0-.1-.2-.1h0c-.2,0-.4.1-.6.2-.4.2-.6.6-.9,1h0c0,.1,0,.2-.2.2-.5,0-.9-.1-1.4-.3h0c0-.1.2-.1.3-.1h0c.3,0,.7,0,1-.1s.5-.2.6-.4h0c0-.1,0-.1,0-.2,0-.1,0,0-.2,0h-.3c-.5.1-1.1.1-1.6,0h-.4c-1.1-.1-2,.1-2.8.5s-.7.4-1,.7h0c0,0,0,.1,0,.1,0,.1,0,0,0,0h0c0,0,0-.1.2-.1,0,0,0,0,0-.1.8-.3,1.5-.4,2.2-.2.3.1.7.2,1,.4q0,0,.2.1c.5.2,1,.4,1.4.4s.3,0,.4-.2c.3-.6.6-1,1-1.3.2-.1.3-.3.6-.3h0c-.6.6-1,1.4-1.3,2-.2.3-.4.5-.8.5-1.9,0-3.8-.3-5.5-1.1h0c0,0,0-.1,0,0h0v.2h0q0,.1,0,.1c.9.4,1.9.7,2.9.9,1.2.2,2.3.3,3.2.2.3,0,.7-.1.9-.3.2-.2.5-.4.7-.6h0c.6-.4,1.3-.7,1.9-1h0q0,0,0-.1t0-.5ZM559.1,301.1c0,.2,0,.2-.2.2-.2,0-.3,0-.5-.1-.5-.1-.9-.3-1.3-.5,0,0-.2-.1-.3-.1-.8-.3-1.5-.4-2.2-.2h-.2,0c.4-.3,1-.5,1.6-.6.3,0,.5-.1.8-.1s.8,0,1.2.1h0c.5,0,.8,0,1.3-.1h0c-.2.2-.4.3-.5.3-.3.1-.5.1-.8.1h-1.1c-.2-.1-.5-.2-.8-.3h0c0,.1,0,.1,0,.1h0c.4.1.7.3,1,.4.2.1.4.2.6.2.3.1.6.2,1,.2h0c.1.3.2.3.2.4,0-.1,0,0,0,0ZM559.5,302.2h0c.3-1.1,1.6-2.3,2.4-2.4h0c-1,.9-1.8,1.6-2.5,2.4h0ZM562.6,300.4c-1,.4-1.8.9-2.5,1.4h0c0,.1,0,0,0,0,.5-.7,1.5-1.4,2.3-1.5,0,.1.1.1.2.1h0Z" />
						</g>
						<g>
							<path class="cls-18" d="M565.8,300.7h1.9v.9h-2.9v-5.2h1.1v4.3Z" />
							<path class="cls-17" d="M572.7,299.3h-1.6v1.4h1.9v.9h-3v-5.2h3v.9h-1.9v1.2h1.6v.8Z" />
							<path class="cls-14"
								d="M578.8,300.9c-.2.2-.5.4-.7.5-.3.1-.6.2-1,.2-.6,0-1.1-.2-1.4-.5-.3-.4-.5-.9-.5-1.6v-.9c0-.7,0-1.3.5-1.7.3-.4.8-.6,1.4-.6s1,.1,1.3.4.5.7.5,1.3h-1c0-.3,0-.6-.2-.7,0-.1-.3-.2-.5-.2-.3,0-.5.1-.6.3,0,.2-.2.5-.2,1v.9c0,.5,0,.8.2,1,0,.2.4.3.7.3s.4,0,.5-.1h0v-1.1h-.7v-.8h1.8l-.2,2.3Z" />
							<path class="cls-15" d="M582.6,301.5h-1.1v-5.2h1.1v5.2Z" />
							<path class="cls-13" d="M588.1,297.1h-1.3v4.4h-1.1v-4.4h-1.3v-.9h3.6v.9Z" />
							<path class="cls-12"
								d="M589.3,300.9c0-.2,0-.3.2-.4,0-.1.2-.2.4-.2s.3,0,.4.2c0,.1.2.2.2.4s0,.3-.2.4c0,.1-.3.2-.4.2-.2,0-.3,0-.4-.2,0-.1-.2-.2-.2-.4Z" />
							<path class="cls-16" d="M596.3,301.4h-1.1v-2.2h-1.6v2.2h-1.1v-5.2h1.1v2.1h1.6v-2.1h1.1v5.2Z" />
							<path class="cls-31" d="M601.4,299.1h-1.6v1.4h1.9v.9h-3v-5.2h3v.9h-1.9v1.2h1.6v.8Z" />
							<path class="cls-32"
								d="M606.2,300.2h-1.4l-.3,1.1h-1.1l1.6-5.2h1l1.7,5.2h-1.1l-.4-1.1ZM605,299.3h1l-.5-1.9-.5,1.9Z" />
							<path class="cls-33" d="M610.5,300.4h1.9v.9h-2.9v-5.2h1.1v4.3Z" />
							<path class="cls-34" d="M617,296.8h-1.3v4.4h-1.1v-4.4h-1.3v-.9h3.6v.9Z" />
							<path class="cls-35" d="M622.7,301.1h-1.1v-2.2h-1.6v2.2h-1.1v-5.2h1.1v2.1h1.6v-2.1h1.1v5.2h0Z" />
						</g>
					</g>
					<g id="psoriasis-wrapper">
						<g class="cls-47">
							<g id="psoriasis">
								<g id="freepik--character-1--inject-2">
									<path class="cls-36"
										d="M492.5,289.2s2.9-27.3,2-40.3c-1.3-18.7,18.3-64.6,18.3-64.6l30.7-12.2,86.5,4.7,52.2,25s-10.3,44.4-14.6,60.4l-4.9,36.2-170.2-9.2Z" />
									<path class="cls-36"
										d="M512.7,184.4s-36.5,9-48.8,41.2c-8.5,22.5-19,59.5-19,59.5l49.3,4.8,18.5-105.5Z" />
									<path class="cls-9"
										d="M519.1,181.9s12.9,34,39.9,46.4c23.5,10.8,42.8,10.5,42.8,10.5,0,0-10.4,9.8-6.3,13.2,4.1,3.3,47.7,1.8,62.3-12.6l-7.9-15.1s-54.6,10.1-82.6-8.2-48.2-34.2-48.2-34.2Z" />
									<path class="cls-26" d="M494.5,243.3c.2,0-.6,22.3-1.8,49.7-1.3,27.4,1.5-49.7,1.8-49.7Z" />
									<path class="cls-38"
										d="M664.6,167.1c-7.3-4.5-26.5.7-28.9,2.4-2.5,1.8-31.5,7.6-31.5,7.6l-89.1-43.2c-2.4-1.1-4.8-2-7.3-2.8-4.1-1.4-8.3-2.5-12.6-3.3-4-.4-28.6-8.8-31.5-8.7-2.9,0-11.1.6-11.1.6,0,0-11.3,12.7-10.8,19.3s1.3,7.9,1.3,7.9c0,0-.1,3.1,4,5.3l4.9,2.8c-1.1.6-1.7,1.9-1.4,3.1.5,2,1.2,4.4,8.5,4.4l6,.6,1.2-1.1s9,.7,10.2.3,14.5-.2,18.3-7.5l3.1,1.7s27.7,32.9,40.4,45.4,34.6,23.6,50.7,28.5c16.1,4.9,76.9-9.2,77.9-9.4,5.8-1.8,10.3-6.3,12.1-12.1,3.1-10-1.7-34-14.4-41.8Z" />
									<path class="cls-49"
										d="M664.6,167.1s.4.2,1.1.7c.4.3.8.6,1.3,1l1.7,1.5c1.5,1.5,2.8,3.2,3.9,5,1.5,2.5,2.8,5.1,3.9,7.8,1.3,3.4,2.3,6.9,2.9,10.5.8,4.3,1,8.6.4,13-.4,2.4-1.3,4.7-2.6,6.8-1.4,2.2-3.3,4-5.5,5.4-1.1.7-2.3,1.4-3.6,1.8-.7.2-1.3.4-2,.6l-2,.5-8.4,1.8c-11.5,2.4-24.3,4.8-38.1,6.6-7.2,1-14.4,1.4-21.6,1.3-1.9-.1-3.8-.3-5.6-.7-.9-.2-1.9-.5-2.8-.8-.9-.3-1.8-.6-2.7-.9-3.6-1.2-7.3-2.7-10.9-4.3-7.4-3.3-14.6-7.2-21.4-11.6-7.2-4.6-13.7-10.1-19.4-16.4-11.8-12.6-23.5-26.2-35.4-40.3h.1l-3.1-1.7h.5c-1.2,1.9-2.9,3.6-5.1,4.6-2.1,1-4.4,1.8-6.7,2.1-2.3.5-4.7.6-7,.9-2.4.1-4.8,0-7.2-.2l-2.8-.2h.3c0-.1-1.2,1-1.2,1h-.1c0,.1-6.2-.5-6.2-.5-1.2,0-2.4-.1-3.6-.2-1.2-.2-2.4-.6-3.5-1.3-1-.8-1.7-2-1.8-3.3-.1-.7,0-1.3.3-1.9.3-.6.8-1.1,1.3-1.4v.6c-.1,0-5.6-3.1-5.6-3.1-2-1-3.3-3-3.6-5.2v.2c-.5-1.2-.8-2.6-1-3.9-.2-1.3-.3-2.6-.4-3.9-.1-1.3.1-2.7.6-3.9.4-1.2.9-2.4,1.5-3.6,2.5-4.4,5.4-8.6,8.8-12.4h.1c0-.1.1-.1.1-.1l6.2-.3h3.1c0-.1,1.6-.1,1.6-.1.5,0,1.1,0,1.6.2,4,.9,7.9,2.1,11.7,3.3l11.4,3.4c1.9.6,3.7,1.1,5.6,1.5.4.1.9.2,1.3.3.5,0,1,.1,1.5.2,1,.2,1.9.4,2.8.7,3.7,1,7.4,2.1,10.9,3.3,3.6,1.2,6.8,3.1,10.1,4.6l19.2,9.3,64.6,31.4h0c9.7-2,18.3-3.8,25.7-5.7,1.8-.4,3.5-1,5.3-1.6,1.5-.8,3.1-1.5,4.8-1.9,2.9-.8,5.8-1.4,8.7-1.9,4-.7,8.1-.8,12.1-.2.6.1,1.2.3,1.8.5l.7.2.5.3,1,.6c-1.3-.6-2.6-1-4-1.3-4-.6-8.1-.5-12.1.3-2.9.5-5.8,1.1-8.6,2-1.6.4-3.2,1.1-4.7,1.9-1.7.7-3.5,1.2-5.3,1.7-7.5,2-16,3.8-25.7,5.8h0l-64.7-31.3-19.2-9.3c-3.3-1.6-6.6-3.3-10.1-4.6-3.5-1.2-7.2-2.3-10.9-3.3-.9-.2-1.9-.5-2.8-.6l-1.3-.2c-.5-.1-1-.2-1.5-.3-1.9-.4-3.8-1-5.7-1.5l-11.4-3.4c-3.8-1.1-7.7-2.4-11.6-3.3-.5-.1-1-.2-1.5-.1h-1.5c0,.1-3.1.2-3.1.2l-6.2.3h.2c-3.3,3.7-6.2,7.8-8.7,12.1-.6,1.1-1.1,2.3-1.5,3.5s-.6,2.4-.5,3.6c.1,1.3.2,2.5.4,3.8.1,1.2.4,2.5.8,3.6h0v.2c.1,1,.5,1.9,1.1,2.7s1.4,1.5,2.3,2l5.5,3.1.5.3-.5.3c-.9.5-1.4,1.5-1.3,2.6s.7,2.1,1.5,2.9c1.8,1.3,4.4,1.3,6.7,1.4l6,.6h-.3c0,.1,1.2-1,1.2-1h.1c0-.1.2-.1.2-.1l2.8.2c2.4.2,4.7.2,7.1.2,2.4-.3,4.7-.4,7-.9,2.2-.4,4.4-1.1,6.5-2.1,2-.9,3.7-2.4,4.8-4.3l.2-.3.3.2,3.1,1.7h0c11.9,14.1,23.7,27.7,35.4,40.3,2.9,3.1,5.9,6.1,9.2,8.9,3.2,2.7,6.6,5.2,10.1,7.4,6.8,4.4,13.9,8.3,21.3,11.6,3.6,1.6,7.2,3,10.8,4.3.9.3,1.8.6,2.7.9s1.7.6,2.6.8c1.8.4,3.7.6,5.5.7,7.2.1,14.4-.3,21.5-1.3,13.8-1.7,26.5-4.1,38.1-6.5l8.4-1.8,2-.5c.7-.1,1.3-.3,2-.5,1.2-.5,2.4-1.1,3.5-1.8,2.1-1.4,4-3.2,5.4-5.3,1.3-2,2.2-4.3,2.6-6.6.5-4.3.4-8.6-.4-12.8-.6-3.6-1.6-7.1-2.8-10.4-1-2.7-2.3-5.3-3.8-7.8-1.1-1.8-2.4-3.5-3.9-5l-1.6-1.5c-.5-.4-1-.7-1.3-1l-.8-1.4Z" />
									<path class="cls-49"
										d="M454.1,126.1c.1,0,.1,1.6.9,4,1.9,6.5,7.1,11.4,13.7,12.8,2.5.5,4,.4,4,.6-.4.1-.7.2-1.1.2-1,0-2,0-3.1-.2-6.9-1.2-12.5-6.3-14.1-13.1-.2-1-.4-2-.4-3-.1-.6,0-.9.1-1.3Z" />
									<path class="cls-49"
										d="M469.9,158s-.6-.7-1-2c-1-3.6.2-7.4,3-9.8,1.1-.9,1.9-1.2,1.9-1.2,0,0-.6.5-1.6,1.5-1.2,1.2-2.1,2.7-2.6,4.3s-.6,3.4-.2,5c.2.8.4,1.5.5,2.2Z" />
									<path class="cls-49"
										d="M463.5,155.9c0-.1.5,0,1.1.4.7.6,1.3,1.4,1.6,2.2.3.9.4,1.8.2,2.7-.1.7-.4,1.1-.5,1,0-1.2-.1-2.4-.3-3.5-.6-1-1.3-2-2.1-2.8Z" />
									<path class="cls-49"
										d="M451.6,154.5c1,.1,2,.3,3,.6,2.4.5,4.8.5,7.2.2,1.3-.2,2.5-.6,3.7-1.3.9-.5,1.7-1.3,2.4-2.1.5-.8,1-1.7,1.3-2.6.1,1.1-.2,2.1-.9,2.9-.6,1-1.5,1.8-2.4,2.4-1.2.7-2.5,1.2-3.9,1.4-2.5.3-5,.2-7.4-.4-1.1,0-2.1-.5-3-1.1Z" />
									<path class="cls-49"
										d="M444.1,150.1c1.3.4,2.6.8,3.8,1.3,3,1.1,6.2,1.5,9.4,1.2,1.7-.2,3.4-.7,4.9-1.6,1.3-.7,2.4-1.6,3.3-2.8.7-1.1,1.3-2.3,1.7-3.5,0,.4,0,.7-.1,1.1-.3,1-.7,1.9-1.3,2.7-.9,1.2-2,2.3-3.2,3-1.6.9-3.3,1.5-5.2,1.7-3.3.3-6.6-.2-9.6-1.4-1.4-.4-2.6-1-3.7-1.7Z" />
									<path class="cls-49"
										d="M442.9,144.8s.1.3.4.8c.5.7,1.2,1.2,2,1.4,1,.4,2.3.7,3.7,1.1,1.4.4,3,.9,4.6,1.3.7.2,1.5.2,2.2-.1.6-.3,1.2-.8,1.6-1.4l2.5-3c.7-1,1.5-1.9,2.4-2.7-.6,1.1-1.3,2.1-2.1,3l-2.4,3.1c-.5.7-1.1,1.2-1.8,1.6-.8.3-1.8.4-2.6.2-1.7-.4-3.2-.9-4.6-1.3-1.4-.4-2.6-.8-3.7-1.2-.9-.3-1.6-.9-2.1-1.7-.2-.7-.1-1.1-.1-1.1Z" />
									<path class="cls-49"
										d="M454.8,134c.4.6.5,1.3.2,1.9-.2.8-.8,1.4-1.5,1.8-1,.5-2.1.4-3-.1l.4-.5c.7.8.9,1.9.5,2.9l-.5-.4c.5-.3,1.2-.3,1.7,0s.8.8.9,1.3c.1.2.1.4.2.5h-.7c.8-1.6,2.1-2.7,3.8-3,2.2-.5,4.5.5,5.7,2.5.2.3.3.6.3.9-.6-1-1.4-1.7-2.4-2.3-1.1-.6-2.3-.7-3.5-.5-1.4.4-2.6,1.3-3.3,2.6l-.4.9-.2-1c0-.2-.1-.3-.1-.5-.1-.4-.3-.7-.7-.9-.3-.2-.6-.2-.9-.1l-1,.7.5-1.1c.3-.7.2-1.6-.3-2.2l-1.3-1.6,1.7,1.1c.7.4,1.6.5,2.4.2.6-.3,1.1-.8,1.3-1.4.2-.4.3-1.1.2-1.7Z" />
									<path class="cls-49"
										d="M445.9,132.4c1,.6,1.9,1.4,2.7,2.3,1.3,1.4,2.3,2.7,2.2,2.8s-1.3-.9-2.7-2.3c-1.4-1.5-2.4-2.7-2.2-2.8Z" />
									<path class="cls-49"
										d="M444.7,142.5c.8-.8,1.8-1.4,3-1.7,1.1-.5,2.2-.7,3.4-.5-1,.5-2.1.9-3.2,1.2-1.1.4-2.1.8-3.2,1Z" />
									<path class="cls-49"
										d="M452.4,146.3c-.2-.9-.2-1.8,0-2.7,0-.9.3-1.8.7-2.6.2,0,.2,1.3,0,2.7s-.5,2.7-.7,2.6Z" />
									<path class="cls-49"
										d="M483,144.3c2.6,1.8,5.1,3.8,7.5,6,2,1.7,3.9,3.2,5.3,4.2.8.5,1.5,1.1,2.2,1.7-.9-.3-1.8-.7-2.6-1.3-1.9-1.2-3.7-2.6-5.4-4.1-2-1.7-3.7-3.3-5.1-4.6-.7-.5-1.4-1.2-1.9-1.9Z" />
									<path class="cls-49"
										d="M600.1,219.3c0-.1.9-1,2-2.9.6-1.1,1.1-2.3,1.5-3.5.4-1.5.7-3,.7-4.6s0-3.1-.5-4.6c-.3-1.2-.7-2.4-1.3-3.5-1-1.9-1.9-2.9-1.8-3,0-.1.3.2.7.7.3.3.5.6.7.9.3.4.6.8.8,1.3.6,1.1,1.2,2.4,1.5,3.6.4,1.6.6,3.2.5,4.8,0,1.6-.3,3.2-.8,4.7-.4,1.2-1,2.4-1.7,3.5-.3.4-.6.9-.9,1.3-.2.3-.5.6-.8.8-.2.4-.5.6-.6.5Z" />
									<path class="cls-36"
										d="M601.3,175.2c8,10.1,12.4,22.5,12.7,35.3-.2,13.2-3.6,26.1-10,37.7,0,0,48.7-.1,62.8-15.4,5.9-6.4,18-25.3,15.5-44.5-2.2-16.6-19.5-34.1-48.8-22.7-29.3,11.5-32.2,9.6-32.2,9.6Z" />
									<path class="cls-26"
										d="M601.3,175.2s0,0,.2.3l.7.9,2.5,3.3c2.8,4.2,5,8.8,6.7,13.7.5,1.5.9,3.2,1.4,4.9s.6,3.5,1,5.4c.5,4,.5,8,.2,12.1,0,2.1-.5,4.3-.8,6.5s-.8,4.4-1.5,6.6c-1.2,4.7-2.7,9.2-4.6,13.6-.8,2.1-1.8,4.1-2.7,6l-.3-.5c15.2.6,30.4-1.3,45.1-5.5,4.4-1.3,8.6-2.9,12.7-4.8,1.4-.6,2.5-1.3,3.3-1.6l.9-.4h.3c0-.1-.3.1-.3.1l-.8.5c-.7.4-1.8,1-3.3,1.7-4.1,2-8.3,3.7-12.7,5-14.7,4.4-29.9,6.3-45.2,5.8h-.5c0-.1.2-.6.2-.6.9-1.9,1.9-3.9,2.7-6,1.9-4.4,3.4-8.9,4.6-13.5.6-2.2,1-4.4,1.5-6.6s.7-4.3.8-6.4c.3-4,.2-8-.2-12-.3-1.8-.6-3.6-.9-5.3-.4-1.7-.8-3.3-1.3-4.8-1.6-4.8-3.7-9.4-6.4-13.7l-2.6-3.5-.6-.9c-.1-.1-.2-.3-.1-.3Z" />
								</g>
								<path class="cls-40"
									d="M598.4,202.2c-.2-.3-.8-.1-.8.2,0-.4-.3-.8-.4-1.2,0-.5,0-1,.2-1.4,0-.4,0-.8-.2-1-.2-.3-.8-.1-.8.2-.2-.4-.3-.9-.5-1.3,0,.2-.3.3-.4.5-.2-.4-.4-.7-.6-1.1,0,.3-.3,1.1-.5,2.1-.2,0-.5.1-.4.4,0,0,0-.1,0-.1.3-2,.5-4,.8-6,0-.4,0-.8-.2-1-.2-.3-.8-.1-.8.2-.2-.4-.3-.9-.5-1.3,0,.2-.3.3-.4.5-.2-.4-.4-.7-.6-1.1-.2.8-1.1,3.8-1.6,6.6h0c0-.9.2-1.8.4-2.7,0-.4,0-.8-.2-1-.2-.3-.8-.1-.8.2-.2-.4-.3-.9-.5-1.3,0,.2-.3.3-.4.5-.2-.4-.4-.7-.6-1.1,0,.3-.2.9-.4,1.6,0-.7.2-1.3.3-2,0-.4,0-.8-.2-1-.2-.3-.8-.1-.8.2-.2-.4-.3-.9-.5-1.3,0,.2-.3.3-.4.5-.2-.4-.4-.7-.6-1.1,0,.4-.4,1.5-.7,2.8,0,.1,0,.1,0,.2-.2-.4-.3-.9-.5-1.3,0,.2-.3.3-.4.5,0-.2-.2-.4-.3-.5v-.3c0-.4,0-.8-.2-1-.2-.3-.8-.1-.8.2-.2-.4-.3-.9-.5-1.3,0,.2-.3.3-.4.5-.2-.4-.4-.7-.6-1.1-.3,1.3-2.5,8.4-1.7,11.3-.2,0-.4.1-.4.4-.2-.4-.3-.9-.5-1.3,0,.2-.3.3-.4.5-.2-.4-.4-.7-.6-1.1-.3,1.5-3.5,11.5-.8,12.4.4.1.9-.2,1.1-.6s.2-.9.2-1.3c.3.2.6.4.9.6,0-.5,0-1,.2-1.5,0,.7.4,1.2.9,1.3.4.1.9-.2,1.1-.6.2-.4.2-.9.2-1.3,0,.1.3.2.4.3-.2,2.1,0,3.8,1,4.2h.2c0,1.8,0,3.2,1,3.5.4.1.9-.2,1.1-.6s.2-.9.2-1.3c.3.2.6.4.9.6v-.2c-.2,2.1,0,3.8,1,4.1.4.1.9-.2,1.1-.6s.2-.9.2-1.3c.3.2.6.4.9.6.3-2.3.6-4.6.9-7,0,.9.4,1.5,1,1.7h.3c-.5,2.9-.7,5.8.6,6.3.4.1.9-.2,1.1-.6s.2-.9.2-1.3c.3.2.6.4.9.6,0-.7.2-1.5.3-2.2,0,.1.2.1.2.1.4.1.9-.2,1.1-.6.2-.4.2-.9.2-1.3.3.2.6.4.9.6.4-2.8.7-5.6,1.1-8.4.3-.7.3-1.1,0-1.4ZM587,203.5c-.2-.4-.3-.9-.5-1.3h0c0-.5,0-.9.2-1.4,0-.3,0-.6,0-.8v-.7c0,.1.3.2.4.3-.2,1.4-.2,2.8,0,3.6-.2,0-.3,0-.2.3ZM587,211.3c.2-1.3.3-2.5.5-3.8,0,.1,0,.2.2.3-.3,1.1-.6,2.3-.7,3.5ZM590.3,205.8c.2-1.2.3-2.3.5-3.5,0,.3.3.5.5.7-.2,1-.4,2-.5,3,0-.2-.3-.3-.5-.2Z" />
								<path id="psoriasis-boundingbox" class="cls-4"
									d="M575.6,199.2c-1,3.7-.8,7.9,1.3,11.1.7,1.1,1.6,2.1,2.6,2.9,2,1.8,4.3,3.4,6.7,4.5,3.7,1.8,8.4,2.5,11.5-.1,2.2-1.9,2.9-4.9,3.2-7.7.7-5.6.4-11.7-2.8-16.4-2.1-3-5.7-5.2-9.2-4.3.3-.1-3.8-3-4.7-3.1-1.9-.1-3.2.5-4.3,1.9-1.8,2.3-3.5,8.3-4.3,11.2Z" />
							</g>
						</g>
					</g>
					<g id="pressureulcer">
						<path class="cls-38"
							d="M604.8,190.3c2.9-2.6,4.7-4.2,4.7-4.2l27.7,15.2h.2c0,.1,10.6-8.4,24.8-20.4v-35.6h-25.9c-16.8,24.5-31.5,45-31.5,45h0Z" />
						<path class="cls-38"
							d="M604.8,190.3c-10.5,9.6-35.7,33-43.9,44.9-11.2,16.2-16.9,24.1-15.8,33.6,1.1,9.5,4.4,7.8,9.2,6.1,3.5-1.2,20.6-20.4,26.5-26.2,5.9-5.8,23.3-10.2,23.3-10.2,25.6-2,37-11.4,37-18.1,0-6.7-3.8-19.1-3.8-19.1h-.2c0-.1-27.7-15.3-27.7-15.3.1.1-1.7,1.7-4.6,4.3Z" />
						<path class="cls-6"
							d="M626.7,218.4c-.9,1.4-2.2,2.6-3.8,3.1-.8.3-1.7.3-2.5.7-1.7.8-2.5,3.1-2,5s2.2,3.3,4,3.9c1.8.7,3.8.6,5.7.4,2.9-.4,5.8-1.3,8.2-3s4.3-4.2,4.8-7.1-.3-6.1-2.5-8c-.7-.7-1.6-1.2-2.6-1.4-1.4-.3-2.9,0-4,.8-1.3.9-1.5,1.8-3.1,1.2-.6,1.5-1.3,3-2.2,4.4Z" />
						<path class="cls-8"
							d="M630.5,216.9c-.7,1-.8,2.2-1.1,3.3-.2,1.1-.6,2.4-1.6,3-.8.5-1.8.6-2.6.9-.9.3-1.8,1-1.7,2,0,.8.8,1.4,1.5,1.7,2.4,1.3,5.3,1.7,8,1.1,2.7-.7,5.1-2.4,6.6-4.7.9-1.4,1.5-3.2,1.4-4.9,0-1.7-1.1-3.4-2.6-4.2-1.5-.8-2.7-.3-4.1.3-1.4.7-2.8,0-3.8,1.5Z" />
						<path class="cls-28"
							d="M632.4,222.9c-.3.2-.6.2-.9.4s-.5.4-.5.8.6.6,1,.7c.6.1,1.3.3,1.9.4.2,0,.4.1.6,0,.2-.1.4-.2.3-.4,0-.2-.2-.3-.2-.5s.3-.3.5-.2c.2,0,.4.1.6,0,.2-.2,0-.5.2-.8.2-.6,1.1-.6,1.4-1.1.3-.3.2-.9,0-1.2-.6-.8-2.4-1.9-3.4-1.3-.7.7-.2,2.5-1.4,3.2Z" />
						<path class="cls-45"
							d="M633.6,223.2c0,.2-.3.4-.3.7s0,.5.2.7c.4.3.9-.1,1.2-.4.5-.5.9-.9,1.4-1.4s.6-.7.6-1.1c0-.3-.4-.6-.7-.7-1.4-.3-1.8,1.2-2.4,2.2Z" />
						<path class="cls-29"
							d="M633.2,223.2c0,.2-.3.4-.3.7s0,.5.2.7c.4.3.9-.1,1.2-.4.5-.5.9-.9,1.4-1.4s.6-.7.6-1.1c0-.3-.4-.6-.7-.7-1.4-.3-1.8,1.2-2.4,2.2Z" />
					</g>
				</g>
			</g>
		</g>
	</g>
</svg>